<?xml version="1.0" encoding="UTF-8" standalone="no"?>
<svg
   version="1.0"
   width="95mm"
   height="60mm"
   viewBox="0 0 269.29134 170.07874"
   preserveAspectRatio="xMidYMid meet"
   id="svg1835"
   sodipodi:docname="bat.svg"
   inkscape:version="1.1 (c68e22c387, 2021-05-23)"
   xmlns:inkscape="http://www.inkscape.org/namespaces/inkscape"
   xmlns:sodipodi="http://sodipodi.sourceforge.net/DTD/sodipodi-0.dtd"
   xmlns="http://www.w3.org/2000/svg"
   xmlns:svg="http://www.w3.org/2000/svg">
  <defs
     id="defs1839" />
  <sodipodi:namedview
     id="namedview1837"
     pagecolor="#505050"
     bordercolor="#ffffff"
     borderopacity="1"
     inkscape:pageshadow="0"
     inkscape:pageopacity="0"
     inkscape:pagecheckerboard="1"
     inkscape:document-units="pt"
     showgrid="false"
     units="mm"
     inkscape:zoom="0.48165138"
     inkscape:cx="123.53333"
     inkscape:cy="15.571429"
     inkscape:window-width="1366"
     inkscape:window-height="745"
     inkscape:window-x="-8"
     inkscape:window-y="-8"
     inkscape:window-maximized="1"
     inkscape:current-layer="svg1835" />
  <g
     id="g16773"
     transform="translate(2.7789233,110.37398)">
    <path
       style="fill:#f2f051;stroke-width:0.75"
       d="m 166.76925,53.243957 c 0.35838,-2.588377 0.41066,-2.640667 0.65795,-0.657952 0.14775,1.184625 -0.0274,2.44995 -0.38932,2.811825 -0.37727,0.377265 -0.49187,-0.541568 -0.26863,-2.153873 z M 43.641069,40.56043 c 0.515625,-0.208057 1.359375,-0.208057 1.875,0 0.515625,0.208057 0.09375,0.378292 -0.9375,0.378292 -1.03125,0 -1.453125,-0.170235 -0.9375,-0.378292 z M 39.232903,38.24464 C 38.3,37.055095 38.326527,37.028568 39.516069,37.96147 c 0.721875,0.566138 1.3125,1.156763 1.3125,1.3125 0,0.61728 -0.615889,0.219983 -1.595666,-1.02933 z M 16.828569,10.02397 c 0,-0.1557375 0.590625,-0.7463625 1.3125,-1.3125 1.189542,-0.9329025 1.21607,-0.906375 0.283166,0.28317 -0.979776,1.249313 -1.595666,1.64661 -1.595666,1.02933 z M 134.39107,-0.0464525 130.82857,-0.275045 v -3.3763125 -3.376305 l 2.32156,1.3548975 c 2.08071,1.21434 5.75162,5.34681 5.07276,5.71059 -0.14813,0.0793725 -1.87245,0.041475 -3.83182,-0.0842775 z M 205.94699,-1.69286 c 0,-1.03125 0.17023,-1.453125 0.37829,-0.9375 0.20806,0.515625 0.20806,1.359375 0,1.875 -0.20806,0.515625 -0.37829,0.09375 -0.37829,-0.9375 z M 145.5011,-5.1684875 c 0.28771,-1.59465 0.90096,-3.8039775 1.36279,-4.9096055 l 0.83968,-2.010232 2.47501,1.298895 2.47503,1.298895 -1.56995,1.995855 c -0.86347,1.0977225 -2.59048,2.7225375 -3.8378,3.61071 l -2.26786,1.6148625 z m 60.47368,-6.6493725 c 0.0153,-1.2375 0.18338,-1.652955 0.37353,-0.923227 0.19016,0.729727 0.17765,1.742227 -0.0278,2.249999 -0.20545,0.507773 -0.36103,-0.08927 -0.34575,-1.326772 z m -51.06852,-7.5261 c -1.28023,-1.458098 -2.32769,-2.875598 -2.32769,-3.15 0,-0.274395 0.25574,-0.178275 0.56831,0.2136 0.31257,0.391875 1.55696,1.809375 2.76532,3.15 1.20835,1.340625 2.00008,2.4375 1.75938,2.4375 -0.24069,0 -1.48508,-1.192995 -2.76532,-2.6511 z m 51.73152,0.713602 c 0.036,-0.873712 0.21371,-1.051424 0.45312,-0.453127 0.21665,0.541403 0.19001,1.188278 -0.0592,1.437502 -0.24922,0.249218 -0.42648,-0.193754 -0.39392,-0.984375 z m -76.69984,-0.07485 c 0.54141,-0.216653 1.18828,-0.190013 1.43751,0.05917 0.24921,0.249225 -0.19376,0.42648 -0.98438,0.393915 -0.87371,-0.036 -1.05142,-0.213706 -0.45313,-0.45312 z M 52.732903,-21.00536 c -0.932903,-1.189545 -0.906376,-1.216072 0.283166,-0.28317 0.721875,0.566138 1.3125,1.156763 1.3125,1.3125 0,0.61728 -0.615889,0.219983 -1.595666,-1.02933 z m 68.999997,-3.75 c -0.9329,-1.189545 -0.90638,-1.216072 0.28317,-0.28317 1.24931,0.979778 1.64661,1.59567 1.02933,1.59567 -0.15574,0 -0.74636,-0.590625 -1.3125,-1.3125 z m -74.249997,-0.75 c -0.932903,-1.189545 -0.906376,-1.216072 0.283166,-0.28317 0.721875,0.566138 1.3125,1.156763 1.3125,1.3125 0,0.61728 -0.615889,0.219983 -1.595666,-1.02933 z m 100.970667,-3.9375 c -0.63994,-1.2375 -0.99477,-2.25 -0.78852,-2.25 0.20625,0 0.89858,1.0125 1.53852,2.25 0.63994,1.2375 0.99477,2.25 0.78852,2.25 -0.20625,0 -0.89858,-1.0125 -1.53852,-2.25 z m 66.375,-9.283166 c 0,-0.155742 0.59062,-0.746367 1.3125,-1.3125 1.18954,-0.932903 1.21607,-0.906376 0.28317,0.283166 -0.97978,1.249311 -1.59567,1.646609 -1.59567,1.029334 z M 192.38778,-76.38036 c 0.036,-0.873707 0.21371,-1.051425 0.45312,-0.453125 0.21665,0.541406 0.19001,1.188281 -0.0592,1.4375 -0.24922,0.249219 -0.42648,-0.19375 -0.39392,-0.984375 z m 18.1386,-12.100686 c 1.14005,-0.172391 2.82755,-0.167784 3.75,0.01024 0.92246,0.178021 -0.0103,0.319068 -2.07281,0.313438 -2.0625,-0.0056 -2.81723,-0.151285 -1.67719,-0.323676 z"
       id="path16777" />
    <path
       style="fill:#818181;fill-opacity:1;stroke:#b00000;stroke-width:0.75;stroke-opacity:1"
       d="M 162.10982,52.017963 C 150.14839,41.293953 134.7494,37.253335 120.3921,41.071427 c -4.98946,1.326871 -6.06942,1.96902 -10.5,6.243353 -5.97122,5.76063 -9.20107,7.622918 -11.285766,6.507217 -0.802275,-0.42936 -2.49948,-2.96145 -3.771562,-5.62686 C 91.896549,42.03865 86.346054,36.317778 80.781009,33.70999 77.003679,31.939922 75.542034,31.685583 69.28297,31.70923 l -7.1706,0.02707 -7.502953,4.28541 C 45.239961,41.3732 42.819113,41.607433 39.386832,37.49462 35.468618,32.799528 34.608386,32.041233 30.596228,29.745708 24.567353,26.296337 16.510712,24.561025 6.396097,24.533275 -0.62218487,24.514 -2.0566634,24.333445 -1.0515813,23.595775 -0.36691405,23.093283 3.3263545,20.48839 7.1556819,17.80714 15.867367,11.707323 29.700275,-1.51214 35.691792,-9.4634825 c 2.505575,-3.3251545 5.772867,-8.5058025 7.260648,-11.5125525 1.487782,-3.006757 2.884173,-5.45886 3.103093,-5.449117 0.21892,0.0098 3.142165,2.326462 6.4961,5.148285 12.531268,10.543125 20.892434,15.632182 32.709809,19.9089595 9.80193,3.5473725 20.657638,5.6750475 28.954908,5.6750475 6.15312,0 6.88467,-0.1534875 7.94469,-1.6668825 1.56166,-2.2295775 1.47218,-6.902985 -0.32108,-16.7685525 -0.81874,-4.50426 -1.49374,-9.020625 -1.5,-10.036373 -0.0106,-1.729582 0.21473,-1.625565 3.55111,1.638758 4.59895,4.49964 6.72377,5.047133 9.73951,2.509553 1.51752,-1.276905 3.18726,-1.926503 4.95193,-1.926503 1.72367,0 3.39494,-0.63009 4.73995,-1.787025 1.80532,-1.552875 2.07754,-2.33181 2.07754,-5.944935 0,-2.286848 0.20791,-4.029413 0.46203,-3.87236 0.25412,0.157054 2.09161,3.0854 4.08333,6.507432 4.20403,7.223123 5.91777,9.302371 8.97934,10.894441 l 2.22113,1.15503 4.0935,-4.39785 c 5.33997,-5.736975 9.58708,-12.32889 17.11017,-26.556552 8.48011,-16.037619 10.15842,-21.896108 10.26904,-35.84625 0.0728,-9.171122 0.24785,-10.669676 1.21003,-10.354148 0.61875,0.202907 2.98125,1.015853 5.25,1.806546 6.41965,2.237344 12.94348,2.646365 21.149,1.325966 3.95645,-0.636656 8.13234,-1.514487 9.27977,-1.950736 1.14741,-0.43625 4.63847,-1.477135 7.75789,-2.313078 3.29274,-0.882391 10.11387,-3.857563 16.26243,-7.093191 5.82491,-3.06531 10.97467,-5.57329 11.4439,-5.57329 0.46922,0 -0.76082,2.27813 -2.73344,5.0625 -11.63523,16.423308 -21.90955,36.683534 -21.90955,43.204092 0,5.910337 -2.93339,8.781219 -10.48102,10.257662 -6.24388,1.221412 -7.57409,1.915436 -12.29312,6.413835 -4.77104,4.547979 -7.83632,10.196469 -9.93737,18.311911 -1.38029,5.331465 -1.82265,20.652645 -0.74861,25.92819 0.83114,4.082475 -0.27603,5.0844375 -7.35979,6.6604275 l -5.62578,1.2516155 -8.90368,8.76738 c -11.94499,11.76213 -16.37726,19.503217 -17.79524,31.079887 -0.29052,2.371875 -0.74247,4.297373 -1.00431,4.278893 -0.26184,-0.01845 -2.09327,-1.483493 -4.06983,-3.25557 z M 136.98195,-2.212175 c -0.83064,-1.1581275 -2.55496,-2.71539 -3.83182,-3.46059 l -2.32156,-1.3548975 v 3.376305 3.3763125 l 3.5625,0.2285925 c 1.95937,0.1257225 3.68369,0.16365 3.83182,0.0842775 0.14812,-0.07938 -0.4103,-1.09188 -1.24094,-2.25 z m 14.10171,-5.282505 1.56995,-1.995855 -2.47503,-1.298895 -2.47501,-1.298895 -0.83968,2.010233 c -0.46183,1.105627 -1.07508,3.3149545 -1.36279,4.9096045 l -0.5231,2.89938 2.26786,-1.6148625 c 1.24732,-0.8881725 2.97433,-2.5129875 3.8378,-3.61071 z"
       id="path16775" />
  </g>
</svg>
