<?xml version="1.0" encoding="UTF-8" standalone="no"?>
<!-- Created with Inkscape (http://www.inkscape.org/) -->

<svg
   width="29mm"
   height="31mm"
   viewBox="0 0 28.999999 31.000001"
   version="1.1"
   id="svg5"
   inkscape:version="1.1 (c68e22c387, 2021-05-23)"
   sodipodi:docname="click.svg"
   xmlns:inkscape="http://www.inkscape.org/namespaces/inkscape"
   xmlns:sodipodi="http://sodipodi.sourceforge.net/DTD/sodipodi-0.dtd"
   xmlns="http://www.w3.org/2000/svg"
   xmlns:svg="http://www.w3.org/2000/svg">
  <sodipodi:namedview
     id="namedview7"
     pagecolor="#505050"
     bordercolor="#ffffff"
     borderopacity="1"
     inkscape:pageshadow="0"
     inkscape:pageopacity="0"
     inkscape:pagecheckerboard="true"
     inkscape:document-units="mm"
     showgrid="false"
     units="mm"
     width="30px"
     inkscape:zoom="2.8220782"
     inkscape:cx="54.392539"
     inkscape:cy="93.725255"
     inkscape:window-width="1366"
     inkscape:window-height="745"
     inkscape:window-x="-8"
     inkscape:window-y="760"
     inkscape:window-maximized="1"
     inkscape:current-layer="layer1"
     inkscape:snap-bbox="true" />
  <defs
     id="defs2" />
  <g
     inkscape:label="Capa 1"
     inkscape:groupmode="layer"
     id="layer1">
    <path
       id="rect972"
       style="vector-effect:none;fill:#000000;fill-opacity:1;fill-rule:evenodd;stroke-width:0.772763;stop-color:#000000"
       d="m 31.402525,36.425006 v 31.000176 h 28.99978 V 36.425006 Z m 5.299418,0.22686 c 0.305084,0.01075 0.613249,0.136224 1.175639,0.384989 1.20018,0.53089 1.5327,1.006079 2.684591,3.838009 l 0.407727,1.002523 1.328601,-0.176217 c 0.817069,-0.10839 1.615372,-0.05733 2.074291,0.132808 0.60227,0.24947 0.896342,0.230699 1.524972,-0.09715 0.89835,-0.46845 2.305335,-0.531852 3.043225,-0.136942 0.37419,0.20026 0.716731,0.165148 1.291911,-0.132292 1.11744,-0.57785 2.439575,-0.501665 3.482474,0.200505 0.791491,0.5329 1.176246,1.284553 3.218925,6.283854 1.276121,3.1232 2.511336,6.324327 2.744535,7.113778 1.324951,4.485309 -1.27789,9.726224 -5.672521,11.421523 -3.722014,1.152339 -8.42318,-0.90356 -12.773772,-2.56522 -3.071234,-1.173023 -5.98439,-1.600837 -8.182054,-2.973458 -3.343927,-3.633146 0.90993,-5.720041 3.803385,-5.654952 2.13958,0.0639 2.336022,0.02857 2.216402,-0.399459 -0.0722,-0.25834 -1.396492,-3.586561 -2.942972,-7.395931 -1.546481,-3.809381 -2.812232,-7.248352 -2.812232,-7.641912 0,-1.17563 0.951928,-2.413001 2.231388,-2.901631 0.548795,-0.209585 0.850402,-0.313579 1.155485,-0.302825 z"
       sodipodi:nodetypes="cccccsccccccscssccsccscscs" />
    <g
       id="g4590"
       transform="translate(3.3624997,-32.364733)">
      <path
         id="rect972-1"
         style="vector-effect:none;fill:#4b0000;fill-opacity:1;fill-rule:evenodd;stroke-width:0.772763;stop-color:#000000"
         d="m 1.952671,33.758283 c -0.656401,0.0017 -1.335924,0.249717 -1.739428,0.718819 -0.33243,0.38647 -0.604614,0.985752 -0.604614,1.331702 0,0.34595 1.369208,3.999117 3.042708,8.118368 1.67349,4.11925 3.042709,7.691189 3.042709,7.9375 0,0.51326 -0.831654,0.855502 -1.535824,0.632002 -0.26277,-0.0834 -1.402749,-0.169206 -2.533179,-0.190686 -1.88304,-0.0358 -2.112327,0.01844 -2.737817,0.643889 -0.87284,0.87284 -0.882461,2.159073 -0.02222,2.979663 0.5884,0.5613 12.616917,5.752638 13.973307,6.030639 0.3638,0.0746 1.613955,0.107915 2.778125,0.07441 1.62499,-0.0467 2.463403,-0.219951 3.610633,-0.745691 1.81231,-0.830509 3.354229,-2.318049 4.214729,-4.066418 0.53439,-1.08579 0.640789,-1.698476 0.640789,-3.683496 v -2.38125 l -2.49804,-6.056478 c -1.373999,-3.33096 -2.735621,-6.277747 -3.026172,-6.548437 -0.642289,-0.59839 -2.34301,-0.657489 -2.80758,-0.09767 -0.26666,0.32131 -0.125963,0.896145 0.762227,3.108854 1.19649,2.980741 1.292327,3.456516 0.669727,3.328996 -0.25291,-0.0518 -0.884839,-1.233402 -1.601969,-2.995683 -0.65139,-1.600729 -1.378846,-3.059245 -1.616956,-3.241145 -0.46023,-0.3516 -1.6016,-0.436086 -2.29495,-0.170016 -0.65214,0.25025 -0.515385,0.925129 0.890385,4.404899 0.83029,2.05526 1.216256,3.33213 1.056266,3.49281 -0.42426,0.42611 -0.892825,-0.349257 -2.231905,-3.692798 -0.69937,-1.746249 -1.504962,-3.38336 -1.790072,-3.63802 -0.86098,-0.76906 -2.576587,-0.543423 -2.576587,0.338997 0,0.26457 0.654849,2.090643 1.455209,4.057633 1.39847,3.43688 1.720681,4.665349 1.223181,4.665349 -0.42652,0 -0.721278,-0.626591 -3.322278,-7.062101 C 4.950347,37.532739 3.568309,34.455072 3.301429,34.213552 2.960052,33.904612 2.463209,33.756971 1.952674,33.758283 Z"
         sodipodi:nodetypes="scscssccccccssccsccssccscscscsccss" />
      <path
         style="fill:#fc3838;fill-opacity:1;stroke-width:0.264583"
         d="m 11.779458,62.690504 c -2.7501899,-0.98043 -12.8327684,-5.31593 -13.4937484,-5.80231 -0.3638,-0.2677 -0.82956,-0.96215 -1.03501,-1.54322 -0.3390198,-0.95884 -0.3267998,-1.15158 0.13229,-2.08534 0.80469,-1.63668 1.90375,-2.10995 4.70564,-2.02632 2.13958,0.0639 2.33608,0.0284 2.21646,-0.39963 -0.0722,-0.25834 -1.39654,-3.58646 -2.94302,-7.39583 -1.54648,-3.809381 -2.81178,-7.248131 -2.81178,-7.641691 0,-1.17563 0.95145,-2.41322 2.23091,-2.90185 1.09759,-0.41917 1.20674,-0.41533 2.33152,0.0822 1.20018,0.53089 1.53246,1.00595 2.6843505,3.83788 l 0.407778,1.00252 1.32846,-0.17622 c 0.81707,-0.10839 1.61571,-0.0573 2.07463,0.13284 0.6022699,0.24947 0.8963599,0.23075 1.5249899,-0.0971 0.89835,-0.46845 2.3049,-0.53168 3.042791,-0.13677 0.374189,0.20026 0.717199,0.16515 1.29238,-0.13229 1.11744,-0.57785 2.43923,-0.50178 3.48213,0.20039 0.79149,0.5329 1.17656,1.28456 3.21924,6.283861 1.276119,3.1232 2.511009,6.32447 2.744209,7.11392 1.324951,4.48531 -1.277909,9.72596 -5.672539,11.42126 -2.16088,0.83359 -5.529061,0.9526 -7.461681,0.26364 z m 7.447481,-1.40126 c 1.812309,-0.83051 3.354089,-2.31812 4.21459,-4.06649 0.534389,-1.08579 0.64106,-1.69875 0.64106,-3.68377 v -2.38125 l -2.498191,-6.05628 c -1.373999,-3.330961 -2.735899,-6.277751 -3.026449,-6.548441 -0.64229,-0.59839 -2.342951,-0.65772 -2.80752,-0.0979 -0.266661,0.32131 -0.12567,0.89614 0.762519,3.10885 1.19649,2.980741 1.29226,3.456881 0.66966,3.329361 -0.25291,-0.0518 -0.8849,-1.23368 -1.60203,-2.995961 -0.651389,-1.60073 -1.379149,-3.05924 -1.61726,-3.24114 -0.46023,-0.3516 -1.60116,-0.4362 -2.29451,-0.17013 -0.65214,0.25025 -0.51569,0.92561 0.89008,4.405381 0.83029,2.05526 1.21643,3.33179 1.05644,3.49247 -0.42426,0.42611 -0.89293,-0.34929 -2.23201,-3.692831 -0.69937,-1.74625 -1.5048399,-3.38336 -1.7899499,-3.63802 -0.86098,-0.76906 -2.57641,-0.5432 -2.57641,0.33922 0,0.26457 0.65485,2.09038 1.45521,4.057371 1.39847,3.43688 1.7205199,4.66539 1.22302,4.66539 -0.42652,0 -0.72116,-0.6263 -3.32216,-7.061811 -1.4227285,-3.52019 -2.8051385,-6.59796 -3.0720185,-6.83948 -0.78029,-0.70615 -2.37063,-0.57042 -3.08797,0.26354 -0.33243,0.38647 -0.60441,0.98572 -0.60441,1.33167 0,0.34595 1.36921,3.99929 3.04271,8.118541 1.67349,4.11925 3.0427105,7.69107 3.0427105,7.93738 0,0.51326 -0.8319305,0.8556 -1.5361005,0.6321 -0.26277,-0.0834 -1.40266,-0.16922 -2.53309,-0.1907 -1.88304,-0.0358 -2.11257,0.0182 -2.73806,0.64365 -0.87284,0.87284 -0.88244,2.15922 -0.0222,2.97981 0.5884,0.5613 12.6168484,5.7524 13.9732384,6.0304 0.3638,0.0746 1.61395,0.1082 2.77812,0.0747 1.624991,-0.0467 2.46379,-0.21989 3.61102,-0.74563 z"
         id="path944-2" />
    </g>
  </g>
</svg>
