<?xml version="1.0" encoding="UTF-8" standalone="no"?>
<svg
   version="1.0"
   width="190mm"
   height="230mm"
   viewBox="0 0 538.58268 651.9685"
   preserveAspectRatio="xMidYMid meet"
   id="svg19571"
   sodipodi:docname="spider.svg"
   inkscape:version="1.1 (c68e22c387, 2021-05-23)"
   xmlns:inkscape="http://www.inkscape.org/namespaces/inkscape"
   xmlns:sodipodi="http://sodipodi.sourceforge.net/DTD/sodipodi-0.dtd"
   xmlns="http://www.w3.org/2000/svg"
   xmlns:svg="http://www.w3.org/2000/svg">
  <defs
     id="defs19575" />
  <sodipodi:namedview
     id="namedview19573"
     pagecolor="#505050"
     bordercolor="#ffffff"
     borderopacity="1"
     inkscape:pageshadow="0"
     inkscape:pageopacity="0"
     inkscape:pagecheckerboard="1"
     inkscape:document-units="pt"
     showgrid="false"
     units="mm"
     inkscape:zoom="0.48498845"
     inkscape:cx="213.40714"
     inkscape:cy="326.8119"
     inkscape:window-width="1366"
     inkscape:window-height="745"
     inkscape:window-x="-8"
     inkscape:window-y="-8"
     inkscape:window-maximized="1"
     inkscape:current-layer="svg19571" />
  <path
     style="fill:#ffffff;fill-opacity:1;stroke:#000000;stroke-width:0.4;stroke-miterlimit:4;stroke-dasharray:none;stroke-opacity:1"
     d="m 196.80353,639.017 c -2.0663,-5.59674 -7.605,-16.39674 -12.30816,-24 -8.10032,-13.09512 -8.8233,-13.8241 -13.7104,-13.8241 h -5.15916 l -0.1142,12.375 c -0.129,13.98728 -2.31276,21.63056 -7.08548,24.79954 -2.89574,1.9227 -3.37066,1.88778 -4.2139,-0.30968 -0.53024,-1.38182 0.1214,-3.66074 1.4739,-5.15536 3.23874,-3.57878 4.44262,-14.08636 2.77372,-24.2095 -1.28208,-7.77674 -1.45316,-8.0251 -2.98222,-4.32954 -1.38556,3.34872 -2.54214,3.92044 -7.93094,3.92044 -4.89342,0 -6.4728,-0.62714 -7.03984,-2.79544 -0.40202,-1.5375 -1.59386,-2.79546 -2.6485,-2.79546 -3.62082,0 -3.60356,13.55556 0.0378,29.625 0.90646,4.0003 0.65358,4.875 -1.40938,4.875 -4.29168,0 -7.34508,-9.94422 -7.48432,-24.37476 l -0.1266,-13.12476 -5.50074,-2.4e-4 c -4.81348,-2e-4 -6.45248,1.07738 -13.11836,8.62476 -7.68036,8.69602 -15.829379,23.13082 -17.359599,30.75 -0.80738,4.02014 -4.20868,5.55788 -5.97432,2.70102 -1.70878,-2.76486 5.56806,-20.44644 12.29842,-29.88324 11.056299,-15.5023 15.134019,-19.50608 20.984159,-20.60356 l 5.35038,-1.00374 -5.83996,-3.53596 c -7.795,-4.71968 -21.873559,-9.26218 -32.464979,-10.47496 -6.26482,-0.71736 -8.625,-1.60868 -8.625,-3.2573 0,-1.92892 2.08996,-2.13244 13.91852,-1.35546 7.655199,0.50286 16.385079,1.94488 19.399759,3.20448 l 5.48124,2.29022 -2.14052,-4.10324 c -2.58196,-4.94946 -2.8625,-23.78624 -0.52358,-35.15442 1.97532,-9.60088 8.91708,-31.39072 10.63218,-33.37384 0.77556,-0.89676 1.7854,-0.872 2.72418,0.0668 0.98906,0.98904 0.2134,6.52434 -2.3016,16.425 -4.58546,18.05128 -6.66614,45.8474 -3.69948,49.422 1.67568,2.01908 2.30882,1.25186 4.59952,-5.5737 2.00526,-5.97504 4.71182,-9.79328 11.04222,-15.57772 l 8.38584,-7.66258 -0.38414,-118.33738 -0.38414,-118.33738 -8.94846,-4.46924 c -16.73522,-8.35828 -40.570499,-6.38462 -49.796639,4.12338 -8.74602,9.96116 -35.8543,52.50826 -55.651163,87.34586 -8.72472,15.35336 -14.89548,24.24222 -23.7912396,34.27086 -6.07324,6.84668 -6.18832,6.89936 -6.23196004,2.85232 -0.0296,-2.73722 1.84594004,-6.14 5.57946004,-10.12318 7.4029396,-7.89798 9.3431596,-10.8449 25.1834196,-38.25 7.391243,-12.7875 16.848963,-28.81504 21.017183,-35.61676 5.53344,-9.0295 8.0253,-14.93206 9.234,-21.87286 2.28818,-13.13978 2.0563,-39.46724 -0.49774,-56.51038 -1.1745,-7.8375 -3.53624,-25.05 -5.24828,-38.25 -3.1213,-24.06528 -7.87266,-41.32459 -13.34166,-48.46351 -2.258,-2.94744 -4.65396,-3.65218 -16.080123,-4.72974 -19.4446796,-1.83378 -24.6767996,-3.02914 -24.6767996,-5.63778 0,-1.74408 1.25934,-2.06162 5.625,-1.41842 3.0937596,0.45584 17.2686596,1.64688 31.4998026,2.6468 24.12484,1.69504 26.0729,1.63872 28.80386,-0.83278 4.49322,-4.0663 17.1276,-22.95082 22.48976,-33.61524 6.9238,-13.77032 16.221399,-42.963539 17.022779,-53.449319 0.64416,-8.42852 0.39502,-9.30974 -3.92376,-13.87792 -3.57846,-3.78512 -4.209639,-5.27986 -2.81744,-6.672082 1.39222,-1.39222 2.90296,-0.71946 6.7435,3.002922 4.82404,4.67566 5.29178,4.79708 18.47742,4.79708 17.2883,0 29.25082,-2.23726 38.76876,-7.250602 10.11606,-5.32838 10.84948,-5.5879 8.81288,-3.11834 -0.9611,1.16542 -1.71394,2.79394 -1.673,3.618942 0.1174,2.36674 -12.28696,8.07472 -21.1593,9.73658 -4.44384,0.83238 -13.89384,1.5298 -21,1.54982 l -12.92026,0.0364 9,8.2897 c 10.65576,9.81478 16.38856,12.67774 25.07682,12.52338 8.31482,-0.1478 14.28256,-2.41892 23.19928,-8.82918 3.97314,-2.8563 7.6739,-5.2188 8.2239,-5.25 0.55,-0.0312 1.5625,-0.67116 2.25,-1.42218 0.72624,-0.79334 0.46436,-0.91338 -0.625,-0.28648 -1.03124,0.59346 -1.875,0.67478 -1.875,0.1808 0,-1.77192 5.98856,-12.59464 7.47856,-13.51552 0.8368,-0.51716 1.52144,-5.247542 1.52144,-10.511982 v -9.57168 l -7.71758,8.16022 c -4.24468,4.4881 -8.37732,8.1602 -9.18366,8.1602 -0.90678,0 -0.87242,-0.71532 0.09,-1.875 0.85584,-1.03124 1.60204,-2.39042 1.6582,-3.02038 0.0562,-0.62996 3.3198,-5.1633 7.25254,-10.07408 l 7.1505,-8.9287 1.61518,-17.2911 c 1.6365,-17.5191803 2.50638,-20.53918033 5.1536,-17.8919603 0.95838,0.95838 0.95186,6.8941403 -0.018,17.0812203 -0.81816,8.58684 -0.98412,16.11482 -0.36878,16.72886 2.64606,2.64048 20.40455,5.94854 36.36879,6.77478 19.81688,1.02564 38.9486,-1.43106 68.66204,-8.81692 12.56128,-3.12236 21.141,-6.22992 27,-9.77938 19.1315,-11.5901 43.0865,-22.6074603 49.14068,-22.6007203 5.5395,0.006 4.71312,0.59904 -12.05272,8.6466203 -9.9,4.752 -21.9901,11.05382 -26.8669,14.00408 -10.40548,6.29488 -12.02636,5.4316 19.86552,10.58034 l 21.4986,3.4708 20.55086,-8.57974 c 24.8682,-10.38218 61.4382,-23.1924603 62.6757,-21.9549603 2.47938,2.4793803 -1.9905,5.2328403 -15.87308,9.7778603 -8.40248,2.75088 -16.13752,4.67148 -17.18896,4.268 -1.05146,-0.40348 -1.91174,0.1432 -1.91174,1.21478 0,1.07162 2.41874,3.04674 5.375,4.38914 4.43542,2.01408 4.86602,2.04182 2.4633,0.1586 -1.60142,-1.25518 -3.57018,-2.28214 -4.375,-2.28214 -0.8048,0 -1.02812,-0.43516 -0.49628,-0.96702 0.53188,-0.53188 9.78942,3.57378 20.57232,9.12366 16.92996,8.71374 19.94412,9.81796 22.08856,8.09202 1.36582,-1.09926 11.24354,-9.25492 21.95048,-18.12366 17.98836,-14.9000803 23.42162,-18.3196403 23.42162,-14.74098 0,1.55974 -15.4435,15.11598 -17.22038,15.11598 -0.63084,0 -0.22056,-1.18124 0.91172,-2.625 1.87194,-2.38692 1.8173,-2.43556 -0.6026,-0.53624 -1.46368,1.1488 -2.30124,2.44872 -1.86126,2.88872 0.43998,0.43998 -0.72496,2.4737 -2.58876,4.51936 -2.54332,2.79152 0.96114,1.416 14.0475,-5.51372 18.00822,-9.53604 20.23966,-10.44474 18.42054,-7.50136 -0.66844,1.08156 -0.41088,1.32424 0.68594,0.64636 0.96592,-0.59698 1.38882,-1.6799 0.93976,-2.4065 -0.44906,-0.7266 0.55242,-2.05372 2.22552,-2.94914 2.55404,-1.36688 3.04202,-1.17618 3.04202,1.18878 0,2.0079 -3.98456,4.98778 -13.875,10.37652 -23.57638,12.84544 -119.67628,63.412222 -120.51208,63.412222 -0.43448,0 -0.30834,-0.7793 0.28032,-1.73176 0.66844,-1.08156 0.4109,-1.32424 -0.68594,-0.64636 -0.96592,0.59698 -1.38882,1.6799 -0.93974,2.4065 0.44904,0.7266 -0.50806,2.02996 -2.12694,2.89636 -3.82668,2.04798 -5.07754,1.99574 -3.74738,-0.1566 0.66844,-1.08156 0.4109,-1.32424 -0.68594,-0.64636 -0.96592,0.59698 -1.38882,1.6799 -0.93974,2.4065 0.44904,0.7266 -0.50806,2.02996 -2.12694,2.89636 -3.82668,2.04798 -5.07754,1.99574 -3.74738,-0.1566 0.68992,-1.11632 0.4084,-1.3227 -0.79216,-0.5807 -1.34118,0.82888 -1.40604,1.6075 -0.23178,2.78176 2.97556,2.97556 1.69338,5.185079 -3.58338,6.174999 -2.86776,0.53798 -9.01128,2.9756 -13.65232,5.41694 -9.3728,4.93038 -10.29006,5.21446 -8.74036,2.707 0.66844,-1.08156 0.4109,-1.32424 -0.68594,-0.64636 -0.96592,0.59698 -1.41898,1.6311 -1.00678,2.29804 0.41218,0.66694 -9.32442,9.38806 -21.63692,19.38024 -12.3125,9.9922 -24.16956,20.50552 -26.34902,23.36296 -2.40546,3.15372 -8.59622,7.58098 -15.75366,11.2661 -12.76074,6.57006 -14.20248,7.05174 -12.55896,4.19578 0.6269,-1.08936 0.50688,-1.35124 -0.28646,-0.625 -0.75102,0.6875 -1.3655,1.98126 -1.3655,2.875 0,0.89374 -0.9377,1.93756 -2.0838,2.3196 -1.42526,0.47508 -1.70478,0.0404 -0.8845,-1.375 0.70806,-1.22188 0.63998,-1.5576 -0.1662,-0.8196 -0.75102,0.6875 -1.38946,1.7 -1.41874,2.25 -0.0674,1.26504 -38.19676,39.46523 -38.19676,38.26765 0,-0.48674 -1.0125,-0.0446 -2.25,0.98234 -1.2551,1.04164 -2.25,1.20408 -2.25,0.36734 0,-1.87522 3.763,-5.10434 4.7722,-4.09512 0.4104,0.4104 2.0358,-0.77672 3.612,-2.63802 l 2.8658,-3.3842 -3.375,2.85748 c -2.0143,1.70544 -3.375,2.1366 -3.375,1.06948 0,-2.3948 30.6139,-33.17695 32.99558,-33.17695 1.42448,0 1.3798,0.62728 -0.187,2.625 -1.86294,2.37544 -1.81068,2.43058 0.54982,0.58004 1.43466,-1.12474 2.24216,-2.6377 1.79442,-3.36216 -0.44774,-0.72446 3.44094,-4.06826 8.6415,-7.43064 8.49762,-5.49406 8.93594,-6.00952 4.32636,-5.08782 -7.46568,1.49282 -25.38532,9.3798 -32.64102,14.3663 -6.69336,4.60006 -8.81298,5.37102 -7.0865,2.57752 0.68394,-1.10662 0.40912,-1.32314 -0.76126,-0.5998 -1.00736,0.62258 -1.47174,1.49178 -1.03198,1.93158 1.15576,1.15572 -16.83542,20.43523 -19.42422,20.81519 -4.65598,0.68334 -1.66512,-3.66275 10.9524,-15.91521 7.32598,-7.11404 17.10642,-14.88726 22.12584,-17.58502 l 8.99598,-4.83502 -7.75064,-0.0398 c -7.98198,-0.0412 -18.41248,3.5577 -26.02822,8.98056 -4.81406,3.42792 -7.10418,3.90206 -4.66782,0.96644 0.91886,-1.10714 1.26288,-2.42078 0.7645,-2.91916 -1.67618,-1.6762 9.08876,-7.15578 12.46524,-6.34508 1.8057,0.43354 3.70002,0.1136 4.20962,-0.71092 1.46202,-2.36556 -17.09768,-0.64572 -24.35114,2.25652 -3.49434,1.39816 -8.38694,4.85824 -10.87244,7.68908 -3.6952,4.20858 -4.50626,6.43644 -4.44866,12.21978 l 0.0704,7.0728 4.05456,-5.21222 c 4.98468,-6.40786 15.58588,-16.49368 17.36322,-16.51908 0.71978,-0.01 0.46838,0.9938 -0.55866,2.2313 -1.02702,1.2375 -1.31018,2.25 -0.62924,2.25 0.68096,0 -1.3711,2.67204 -4.5601,5.93786 -3.189,3.26584 -6.31684,5.61732 -6.95076,5.22554 -0.63394,-0.39178 -1.64104,0.078 -2.238,1.0439 -0.67788,1.09682 -0.43522,1.35438 0.64634,0.68592 2.4549,-1.5172 2.1838,-0.35286 -1.61464,6.93462 -1.87366,3.59468 -3.32902,9.06123 -3.30688,12.42117 0.0722,10.9852 1.1989,20.25098 2.46216,20.25098 0.68656,0 0.90072,-1.51876 0.47592,-3.375 -1.01354,-4.42888 7.99054,-21.02604 11.67512,-21.52068 1.49044,-0.20008 2.50294,0.0884 2.25,0.64094 -0.25296,0.5526 -3.40096,6.8342 -6.99558,13.9591 -5.86394,11.62296 -6.42164,13.62716 -5.42602,19.50002 0.99716,5.88204 1.24256,6.18752 2.42052,3.01336 1.9915,-5.36638 7.35782,-12.3536 8.80222,-11.46092 0.70492,0.43566 1.7701,0.002 2.36706,-0.96412 0.67788,-1.09684 0.43522,-1.35438 -0.64634,-0.68594 -2.54302,1.57166 -2.11268,-1.4233 0.51822,-3.60676 1.2375,-1.02704 2.25,-1.36454 2.25,-0.75 0,0.61454 1.0125,0.27704 2.25,-0.75 3.9214,-3.25446 2.45624,-0.0766 -4.38448,9.5098 -3.64896,5.11358 -7.11704,11.30952 -7.70684,13.7688 -1.3317,5.55284 -3.3602,8.2214 -6.2495,8.2214 -3.35566,0 -15.74955,6.56696 -28.27723,14.98286 -11.98828,8.05352 -14.19316,9.03944 -10.94062,4.89214 1.87194,-2.38692 1.8173,-2.43556 -0.60258,-0.53626 -1.4637,1.14882 -2.32182,2.42818 -1.90698,2.84304 0.41486,0.41484 -3.3253,5.11536 -8.31144,10.44558 -4.98616,5.3302 -9.86538,11.47584 -10.84276,13.65696 -1.30852,2.9202 -1.89372,35.31822 -2.2197,122.88992 l -0.44268,118.92426 6.1342,5.50678 c 7.4985,6.73152 11.52872,13.04574 13.26262,20.77866 l 1.3153,5.86606 1.8713,-4.5 c 3.82614,-9.20094 -1.82994,-54.11858 -7.54582,-59.925 -2.31978,-2.35652 -1.58428,-5.325 1.3194,-5.325 5.93016,0 13.3334,25.62242 14.79708,51.21222 0.90744,15.8654 0.8861,16.00206 -3.5198,22.53036 l -4.43278,6.56816 8.34166,0.22884 c 4.5879,0.1258 12.61546,1.57732 17.839,3.22542 9.44009,2.97852 21.25265,9.91848 21.25265,12.48608 0,2.72434 -4.69976,3.0331 -7.50638,0.49314 -4.30924,-3.89982 -21.83561,-8.25228 -32.96117,-8.18552 -9.40432,0.0564 -9.60728,0.135 -5.25084,2.03322 8.98854,3.91644 26.05685,32.5989 29.95181,50.33256 0.85004,3.87024 0.55766,4.57552 -1.8969,4.57552 -2.21476,0 -3.79141,-2.4094 -6.65879,-10.17592 z m -41.33758,-41.1991 c 3.76672,-3.71736 3.30472,-4.28348 -1.46514,-1.79528 -2.26874,1.1835 -4.4625,2.15552 -4.875,2.16006 -1.18316,0.014 -0.73082,-18.0795 0.62552,-25.01904 1.4765,-7.55438 6.85118,-13.219 11.411,-12.02656 2.95298,0.7722 3.02734,0.60088 1.03892,-2.39382 -1.17794,-1.77408 -4.5374,-5.16458 -7.46546,-7.53446 -5.9467,-4.81304 -8.64298,-4.60604 -14.83482,1.13902 -3.7931,3.51938 -3.96016,4.30996 -3.65318,17.28838 0.1908,8.0663 1.04522,14.3239 2.09984,15.37852 2.39302,2.39302 2.25454,5.67818 -0.23934,5.67818 -1.10962,0 -3.19804,-1.30448 -4.64092,-2.89884 -1.44288,-1.59436 -3.58624,-2.52938 -4.76302,-2.0778 -1.47994,0.5679 -0.65184,1.6189 2.686,3.40902 5.41932,2.9064 7.25424,6.06762 3.52194,6.06762 -1.35494,0 -2.04636,0.675 -1.53648,1.5 0.50988,0.825 2.53488,1.5 4.5,1.5 1.96512,0 3.92506,0.56974 4.35542,1.26604 1.3683,2.21398 10.47236,1.08512 13.23472,-1.64104 z m 7.35838,-7.125 c 0.81318,0 1.02132,-0.73976 0.46252,-1.64394 -0.69736,-1.12834 -1.7217,-0.93824 -3.26602,0.60606 -1.40192,1.40194 -1.77232,3.01098 -0.9827,4.26894 0.9967,1.58784 1.37838,1.45844 1.78748,-0.60606 0.2861,-1.44374 1.18552,-2.625 1.99872,-2.625 z m -4.99852,-6.3 c 2.06526,-2.06526 2.4101,-5.7 0.54078,-5.7 -0.69258,0 -2.0281,1.6875 -2.96786,3.75 -1.80884,3.97002 -0.58014,4.95722 2.42708,1.95 z m 9.3,-1.95 c 1.93762,-2.0625 3.18544,-3.75 2.77294,-3.75 -0.4125,0 -2.33532,1.6875 -4.27294,3.75 -1.93762,2.0625 -3.18544,3.75 -2.77294,3.75 0.4125,0 2.33532,-1.6875 4.27294,-3.75 z m -33.81072,-9.68622 c -0.0334,-5.73936 -0.57532,-10.94982 -1.20428,-11.57878 -0.62896,-0.62896 -0.69816,0.016 -0.1538,1.43572 0.54438,1.41862 0.4113,2.57928 -0.29572,2.57928 -1.79842,0 -1.61348,13.85248 0.21452,16.06794 0.825,0.99988 1.5,1.8434 1.5,1.8745 0,0.031 -0.0274,-4.63928 -0.0608,-10.37866 z m 27.70528,1.06122 c 0.058,1.03126 0.67194,1.875 1.3643,1.875 1.9105,0 0.99666,-8.53226 -1.19694,-11.17538 -2.93286,-3.53392 -4.49942,-2.8406 -6.97634,3.08752 -2.76738,6.6233 -1.69894,8.4563 1.5129,2.59548 1.82234,-3.32536 2.28866,-3.60074 2.1297,-1.25762 -0.1118,1.65 -0.0492,4.35 0.1394,6 l 0.3431,3 1.28914,-3 c 0.70904,-1.65 1.3366,-2.15624 1.39458,-1.125 z m -0.39456,-3.625 c -0.55,-0.55 -1,-1.6975 -1,-2.55 0,-0.9399 0.69866,-0.85134 1.775,0.225 0.97626,0.97626 1.42626,2.12376 1,2.55 -0.42626,0.42626 -1.225,0.325 -1.775,-0.225 z m -71.874999,2.966 c -1.44374,-0.37728 -3.80624,-0.37728 -5.25,0 -1.44374,0.3773 -0.2625,0.686 2.625,0.686 2.8875,0 4.06876,-0.3087 2.625,-0.686 z m 28.399679,-26.24726 c -0.47884,-1.19658 -0.83428,-0.84116 -0.90626,0.90626 -0.0652,1.58124 0.2894,2.46718 0.78784,1.96874 0.49844,-0.49842 0.55172,-1.79218 0.1184,-2.875 z M 148.75027,370.5679 c -0.2264,-31.14374 -0.41162,-5.6625 -0.41162,56.625 0,62.2875 0.1852,87.76874 0.41162,56.625 0.22638,-31.14374 0.22638,-82.10626 0,-113.25 z M 8.1258084,421.9429 c 1.9376196,-2.0625 3.1854396,-3.75 2.7729396,-3.75 -0.4125,0 -2.3353196,1.6875 -4.2729396,3.75 -1.93762,2.0625 -3.18544,3.75 -2.77294,3.75 0.4125,0 2.33532,-1.6875 4.27294,-3.75 z m 57.9613226,-97.5223 -1.71132,-3.67668 -0.8574,4.09948 c -1.07544,5.14188 -0.20122,6.97296 2.32726,4.87452 1.517,-1.259 1.57088,-2.44112 0.24146,-5.29732 z m 10.9454,-15.55246 c 4.3545,-6.0911 8.58682,-13.1786 9.40516,-15.75 5.05698,-15.89022 -3.55008,-82.32612 -13.61294,-105.07485 -3.6976,-8.35906 -3.80434,-8.9016 -1.46718,-7.45714 1.08156,0.66844 1.32424,0.4109 0.64636,-0.68594 -0.59698,-0.96592 -1.66712,-1.3967 -2.37812,-0.9573 -0.71098,0.4394 -1.71668,0.113 -2.23488,-0.72554 -0.51818,-0.83844 -5.30354,-1.52446 -10.63412,-1.52446 h -9.69196 l 3.00494,5.8902 c 4.44444,8.7118 8.67648,25.89149 10.55808,42.85979 0.91484,8.25 2.7563,21.075 4.09216,28.5 1.61308,8.96584 2.46694,22.66642 2.5423,40.79214 0.0624,15.01068 0.50486,26.82318 0.98322,26.25 0.47834,-0.57318 4.43248,-6.02578 8.78698,-12.1169 z m -10.79296,-20.73786 c -0.2894,-5.60306 -0.52832,-1.41238 -0.53094,9.31262 -0.002,10.725 0.23414,15.30932 0.52616,10.18738 0.29202,-5.12194 0.29416,-13.89694 0.004,-19.5 z m 82.164919,-22.90744 c -2.19908,-2.29534 -6.65468,-5.37122 -9.90132,-6.83524 -11.48452,-5.1788 -16.21282,-1.6339 -39.303599,29.46684 l -4.17626,5.62494 5.575939,-1.53958 c 3.06678,-0.84678 10.6836,-1.305 16.92626,-1.01826 8.92524,0.40998 13.2732,1.48282 20.3503,5.02136 l 9,4.5 2.76352,-15.52334 2.7635,-15.52334 z M 93.625811,296.6929 c 0,-0.825 -0.29766,-1.5 -0.66146,-1.5 -0.36382,0 -1.07866,0.675 -1.58854,1.5 -0.50988,0.825 -0.2122,1.5 0.66148,1.5 0.8737,0 1.58852,-0.675 1.58852,-1.5 z m 8.593759,-2.40626 c -0.49844,-0.49842 -1.7922,-0.5517 -2.874999,-0.1184 -1.1966,0.47882 -0.84116,0.83426 0.906239,0.90624 1.58126,0.0652 2.4672,-0.2894 1.96876,-0.78784 z m 49.44024,-6.21874 c -0.3773,-1.44376 -0.686,-0.2625 -0.686,2.625 0,2.8875 0.3087,4.06876 0.686,2.625 0.37728,-1.44376 0.37728,-3.80624 0,-5.25 z m -57.842659,3 c 1.8658,-2.37908 1.81276,-2.43214 -0.56634,-0.56634 -2.39726,1.88008 -2.64448,1.55476 -2.84974,-3.75 -0.183,-4.72746 -0.34334,-5.01728 -0.86186,-1.55696 -0.60034,4.00626 0.2485,8.4983 1.60586,8.4983 0.33738,0 1.53982,-1.18124 2.67208,-2.625 z m 27.933659,1.5323 c -3.09374,-0.32362 -8.15624,-0.32362 -11.25,0 -3.09374,0.32362 -0.5625,0.58838 5.625,0.58838 6.1875,0 8.71876,-0.26476 5.625,-0.58838 z m 42.81102,-13.9073 c 0.8939,0 -0.35728,2.19376 -2.78038,4.875 l -4.40564,4.875 4.82166,-4.35452 c 2.65192,-2.39502 4.53218,-4.82298 4.17834,-5.39548 -1.74636,-2.82568 31.11238,-25.60948 41.41391,-28.71584 l 5.41392,-1.63254 -2.67654,-6.95082 c -2.4958,-6.48142 -3.01746,-6.93096 -7.72512,-6.657 -11.65147,0.67806 -31.33857,12.7858 -39.17407,24.09242 -3.72574,5.37624 -5.66064,10.94614 -9.15626,26.35744 l -0.96256,4.24368 4.71376,-5.36868 c 2.59256,-2.95276 5.4451,-5.36866 6.33898,-5.36866 z m -57.76004,-8.64724 c 12.01378,-15.32268 12.07722,-15.45042 13.1015,-26.38108 2.29974,-24.54148 -5.48502,-49.18919 -19.7793,-62.62435 -5.705719,-5.36278 -5.828099,-5.39754 -16.568859,-4.7088 l -10.8207,0.69388 2.7767,5.4588 c 7.8689,15.4697 16.79426,62.15197 17.16128,89.75851 0.1118,8.41484 0.6205,14.82734 1.13028,14.25 0.50978,-0.57736 6.359379,-7.97848 12.999099,-16.44696 z m 46.34868,9.866 c -0.47882,-1.1966 -0.83426,-0.84118 -0.90624,0.90624 -0.0652,1.58124 0.28938,2.4672 0.78784,1.96876 0.49844,-0.49846 0.55172,-1.7922 0.1184,-2.875 z M 64.686711,267.8354 c -0.3588,-1.86588 -0.66596,-0.6925 -0.68262,2.6075 -0.016,3.3 0.2769,4.82662 0.65234,3.3925 0.37544,-1.43414 0.38906,-4.13414 0.0302,-6 z m 26.96378,4.57626 c -0.47884,-1.1966 -0.83428,-0.84118 -0.90626,0.90624 -0.0652,1.58124 0.2894,2.4672 0.78784,1.96876 0.49844,-0.49846 0.55172,-1.7922 0.1184,-2.875 z m 61.975319,-6.23628 c 0,-0.28464 -1.51874,-1.80338 -3.375,-3.375 l -3.375,-2.85748 2.85748,3.375 c 2.68534,3.17166 3.89252,4.05786 3.89252,2.85748 z M 90.159811,256.5679 c -0.3773,-1.44376 -0.68598,-0.2625 -0.68598,2.625 0,2.8875 0.30868,4.06876 0.68598,2.625 0.37728,-1.44376 0.37728,-3.80624 0,-5.25 z m 76.514219,-36 c -0.77856,-1.03124 -3.22888,-1.875 -5.4452,-1.875 -2.2163,0 -5.10132,0.84376 -6.41118,1.875 -2.8271,2.22578 -28.19184,32.23316 -28.19184,33.35194 0,0.42518 2.19376,0.6932 4.875,0.5956 l 4.875,-0.1774 -4.5,-1.14506 -4.5,-1.14506 4.17318,-0.1774 c 5.14134,-0.21864 12.37176,2.85964 18.32582,7.80202 l 4.499,3.73454 6.85788,-20.482 c 4.58862,-13.70452 6.38948,-21.10246 5.44234,-22.35702 z m -103.554799,36.75 c -0.41612,-1.03124 -0.75658,-0.1874 -0.75658,1.875 0,2.0625 0.34046,2.90626 0.75658,1.875 0.41612,-1.03124 0.41612,-2.71874 0,-3.75 z m 79.344879,-0.4227 c -1.60142,-1.21126 -3.62642,-2.17838 -4.5,-2.14914 -0.87356,0.0292 0.0992,1.01782 2.1617,2.19684 4.85888,2.7776 6.04178,2.75346 2.3383,-0.0478 z m 19.77176,-2.8803 c -2.28894,-2.48504 -3.29528,-1.77122 -2.05596,1.45838 0.5086,1.32536 1.59776,1.9938 2.42038,1.4854 0.95028,-0.5873 0.81742,-1.66072 -0.36442,-2.94378 z M 61.665311,247.59644 c -0.38032,-1.45944 -0.7165,-0.62854 -0.74706,1.84646 -0.0306,2.475 0.28058,3.6691 0.69148,2.65354 0.41088,-1.01554 0.43588,-3.04054 0.0556,-4.5 z m 62.335499,4.60304 c -1.03124,-0.41612 -1.875,-1.82534 -1.875,-3.13158 0,-1.30624 -0.42088,-1.9541 -0.9353,-1.43968 -1.46332,1.46332 0.62432,5.57804 2.76322,5.44626 1.50546,-0.0926 1.51568,-0.2824 0.047,-0.875 z m -35.335499,-6.10304 c -0.38032,-1.45944 -0.7165,-0.62854 -0.74706,1.84646 -0.0306,2.475 0.28058,3.6691 0.69148,2.65354 0.41088,-1.01554 0.43588,-3.04054 0.0556,-4.5 z m 126.054269,4.6902 c -0.49846,-0.49842 -1.7922,-0.5517 -2.875,-0.1184 -1.1966,0.47882 -0.84118,0.83426 0.90624,0.90624 1.58124,0.0652 2.4672,-0.2894 1.96876,-0.78784 z m -40.95303,-8.09374 c 0.67462,0 0.3002,1.18124 -0.83208,2.625 -1.85742,2.36842 -1.80674,2.42766 0.51838,0.60614 1.41738,-1.11038 2.42988,-2.75692 2.25,-3.65896 -0.50442,-2.52958 13.70858,-9.81676 22.97654,-11.78036 l 8.30359,-1.75926 -1.4067,-10.39188 -1.40668,-10.39188 -7.64691,0.59984 c -4.20578,0.32992 -8.93886,1.17614 -10.51794,1.88052 -2.19554,0.97932 -2.58218,0.8132 -1.64324,-0.70602 0.82306,-1.33172 0.64886,-1.62884 -0.5284,-0.90126 -0.96592,0.59698 -1.43172,1.61048 -1.0351,2.25222 0.39662,0.64176 -1.26274,3.06748 -3.68746,5.39052 -3.81208,3.6522 -10.18208,17.43354 -14.20648,30.73538 l -1.13454,3.75 4.38522,-4.125 c 2.41186,-2.26874 4.93718,-4.125 5.6118,-4.125 z m -35.99994,-10.48136 8.8908,-10.75238 0.055,-12.25812 c 0.0612,-13.67465 -3.94544,-27.24179 -9.9364,-33.64593 -2.91668,-3.1178 -4.35982,-3.51944 -10.1501,-2.8249 -3.7125,0.44532 -10.63272,1.25956 -15.37828,1.80944 l -8.62828,0.99974 4.50328,5.12896 c 4.48718,5.1106 6.06312,9.16566 2.77152,7.13132 -1.08156,-0.66844 -1.32424,-0.41088 -0.64636,0.68594 0.59698,0.96592 1.6879,1.38388 2.42426,0.92878 0.73636,-0.4551 2.6527,1.74798 4.25856,4.8957 5.6047,10.98611 8.1851,23.07627 8.31752,38.97091 0.1158,13.90232 0.3384,15.0734 2.37778,12.5105 1.2375,-1.55516 6.25086,-7.66614 11.1408,-13.57996 z m -6.44946,12.35636 c 1.8658,-2.37908 1.81274,-2.43214 -0.56634,-0.56634 -2.49862,1.95956 -3.29322,3.19134 -2.05866,3.19134 0.31148,0 1.49274,-1.18124 2.625,-2.625 z m -71.130439,-8.2325 c -0.3588,-1.86588 -0.66596,-0.6925 -0.68262,2.6075 -0.016,3.3 0.2769,4.82662 0.65234,3.3925 0.37544,-1.43414 0.38906,-4.13414 0.0302,-6 z m 26.93252,-1.5175 c -0.41612,-1.03124 -0.75658,-0.1874 -0.75658,1.875 0,2.0625 0.34046,2.90626 0.75658,1.875 0.41612,-1.03124 0.41612,-2.71874 0,-3.75 z m 36.067479,-2.98252 c -0.3588,-1.86586 -0.66596,-0.69248 -0.68262,2.60752 -0.016,3.3 0.2769,4.82662 0.65234,3.3925 0.37544,-1.43414 0.38906,-4.13414 0.0302,-6.00002 z m 15.63044,3.73252 c 1.8658,-2.37908 1.81274,-2.43214 -0.56634,-0.56634 -1.44374,1.13228 -2.625,2.31352 -2.625,2.625 0,1.23456 1.23178,0.43996 3.19134,-2.05866 z m 61.68367,-2.86842 c -1.03125,-0.41612 -2.71875,-0.41612 -3.75001,0 -1.03124,0.41612 -0.1874,0.75658 1.875,0.75658 2.06251,0 2.90627,-0.34046 1.87501,-0.75658 z m -141.814109,-8.3641 c -0.3588,-1.86586 -0.66596,-0.69248 -0.68262,2.60752 -0.016,3.3 0.2769,4.82662 0.65234,3.39248 0.37544,-1.43412 0.38906,-4.13412 0.0302,-6 z m 148.532869,6.95126 c -0.49846,-0.49842 -1.7922,-0.5517 -2.875,-0.1184 -1.1966,0.47882 -0.84118,0.83426 0.90624,0.90624 1.58124,0.065 2.4672,-0.2894 1.96876,-0.78784 z m -121.554269,-6.1902 c -0.38032,-1.45946 -0.7165,-0.62854 -0.74706,1.84646 -0.0306,2.475 0.28058,3.6691 0.69148,2.65354 0.41088,-1.01554 0.43588,-3.04054 0.0556,-4.5 z m 35.994499,-7.52854 c -0.3773,-1.44376 -0.68598,-0.2625 -0.68598,2.625 0,2.8875 0.30868,4.06876 0.68598,2.625 0.37728,-1.44376 0.37728,-3.80624 0,-5.25 z m 87.00549,1.52854 c -0.3803,-1.45946 -0.71648,-0.62854 -0.74706,1.84646 -0.0306,2.475 0.2806,3.6691 0.6915,2.65354 0.41088,-1.01554 0.43588,-3.04054 0.0556,-4.5 z M 84.119231,216.8179 c -0.41612,-1.03124 -0.75658,-0.1874 -0.75658,1.875 0,2.0625 0.34046,2.90626 0.75658,1.875 0.41612,-1.03124 0.41612,-2.71874 0,-3.75 z m 84.506579,1.125 c -1.02704,-1.2375 -2.96594,-2.24006 -4.30866,-2.22788 -1.6419,0.014 -1.21336,0.70348 1.30866,2.10292 4.96474,2.75484 5.19042,2.76426 3,0.125 z M 57.165311,213.09644 c -0.38032,-1.45946 -0.7165,-0.62854 -0.74706,1.84646 -0.0306,2.475 0.28058,3.6691 0.69148,2.65354 0.41088,-1.01554 0.43588,-3.04054 0.0556,-4.5 z m 118.038419,-8.56108 c -1.51998,-3.96102 -5.59466,-2.5693 -10.7876,3.68458 l -4.95972,5.97296 h 4.49618 c 2.47288,0 4.97578,0.77602 5.56196,1.72448 1.46898,2.37684 6.84312,-8.3749 5.68918,-11.38202 z m -55.05324,6.3763 c -0.47884,-1.1966 -0.83428,-0.84118 -0.90626,0.90624 -0.0652,1.58124 0.2894,2.46718 0.78784,1.96876 0.49844,-0.49846 0.55172,-1.7922 0.1184,-2.875 z m 42.6017,-9.94142 c 0.75548,-1.90993 1.37362,-7.37887 1.37362,-12.15315 0,-6.59946 -0.83102,-9.90244 -3.46638,-13.77736 -3.37508,-4.96262 -3.70094,-5.08346 -12.37498,-4.58896 -9.202,0.52458 -12.79972,2.05084 -9.55758,4.0546 1.20058,0.74198 1.4821,0.53562 0.79218,-0.5807 -0.58866,-0.95246 -0.47974,-1.73176 0.24202,-1.73176 4.20044,0 12.31406,23.46786 12.4257,35.94015 l 0.061,6.80984 4.56542,-5.25 c 2.51096,-2.8875 5.18354,-6.81268 5.93904,-8.72264 z m 15.14862,9.89766 c -1.07634,-1.07634 -1.775,-1.1649 -1.775,-0.225 0,2.00216 1.77392,3.77608 2.775,2.775 0.42626,-0.42624 -0.0236,-1.57374 -1,-2.55 z m -95.250319,-1.45624 c -0.47884,-1.1966 -0.83428,-0.84118 -0.90626,0.90624 -0.0652,1.58124 0.2894,2.4672 0.78784,1.96876 0.49844,-0.49846 0.55172,-1.7922 0.1184,-2.875 z m 67.533919,-6.09376 c -0.35752,-1.85626 -0.65006,-0.3375 -0.65006,3.375 0,3.7125 0.29254,5.23126 0.65006,3.375 0.35754,-1.85626 0.35754,-4.89374 0,-6.75 z m 56.96607,6.09376 c -0.47882,-1.1966 -0.83426,-0.84118 -0.90624,0.90624 -0.065,1.58124 0.28938,2.4672 0.78784,1.96876 0.49844,-0.49846 0.55172,-1.7922 0.1184,-2.875 z m -151.499989,-4.5 c -0.47884,-1.1966 -0.83428,-0.84118 -0.90626,0.90624 -0.0652,1.58124 0.2894,2.4672 0.78784,1.96876 0.49844,-0.49846 0.55172,-1.7922 0.1184,-2.875 z m 25.5,-1.5 c -0.47884,-1.1966 -0.83428,-0.84118 -0.90626,0.90624 -0.0652,1.58124 0.2894,2.4672 0.78784,1.96876 0.49844,-0.49846 0.55172,-1.7922 0.1184,-2.875 z m 112.022859,0.0616 c 3.18864,-0.75506 6.90115,-1.02088 8.25001,-0.59074 2.17516,0.69368 2.39818,-0.83768 1.97244,-13.54341 -0.62214,-18.56608 -2.29946,-18.28598 -13.31941,2.22426 -6.3459,11.81097 -7.69856,15.33527 -5.5466,14.45151 1.5653,-0.64284 5.45492,-1.78658 8.64356,-2.54162 z m 1.32746,2.2264 c -1.03124,-0.41612 -2.71874,-0.41612 -3.75,0 -1.03124,0.41612 -0.1874,0.75658 1.875,0.75658 2.0625,0 2.90626,-0.34046 1.875,-0.75658 z M 54.150491,198.91177 c -0.47884,-1.1966 -0.83428,-0.84118 -0.90626,0.90624 -0.0652,1.58123 0.2894,2.46719 0.78784,1.96875 0.49844,-0.49846 0.55172,-1.79219 0.1184,-2.87499 z m 202.975329,-6.46876 c 5.31484,-5.3625 9.32584,-9.75 8.91334,-9.75 -0.4125,0 -5.0985,4.3875 -10.41334,9.75 -5.31482,5.3625 -9.32582,9.74999 -8.91332,9.74999 0.4125,0 5.0985,-4.38749 10.41332,-9.74999 z m -72.11497,-2.625 c 2.65932,-4.74374 4.27936,-8.58638 3.60004,-8.5392 -0.67928,0.0472 -4.0891,3.53952 -7.57734,7.76074 -4.96472,6.00796 -5.97222,8.12084 -4.63858,9.72778 2.0478,2.46745 2.44972,2.04995 8.61588,-8.94932 z m 25.61497,7.53086 c 0,-0.87796 -0.95312,-0.73218 -2.25,0.34414 -1.2375,1.02704 -2.25,2.101 -2.25,2.38659 0,0.28558 1.0125,0.1308 2.25,-0.34415 1.2375,-0.47488 2.25,-1.54884 2.25,-2.38658 z m -62.00659,-3.03086 c -0.41612,-1.03124 -0.75658,-0.1874 -0.75658,1.875 0,2.0625 0.34046,2.90626 0.75658,1.875 0.41612,-1.03124 0.41612,-2.71874 0,-3.75 z m 18.09168,-9 c -0.33274,-2.68124 -0.605,-0.4875 -0.605,4.875 0,5.3625 0.27226,7.55624 0.605,4.875 0.33274,-2.68124 0.33274,-7.06876 0,-9.75 z m 6.60624,9.75 c 1.8658,-2.37908 1.81276,-2.43214 -0.56634,-0.56634 -1.44374,1.13228 -2.625,2.31352 -2.625,2.625 0,1.23456 1.23178,0.43996 3.19134,-2.05866 z m -96.198419,-4.44348 c -1.63442,-2.54894 -1.67674,-2.54566 -0.85618,0.0662 0.4748,1.51124 0.91656,3.53622 0.98168,4.5 0.0854,1.26476 0.3237,1.24632 0.85618,-0.0662 0.40574,-1.00016 -0.036,-3.02518 -0.98168,-4.5 z M 182.09495,175.90177 c 0.016,-2.49768 -0.9402,-5.9276 -2.12702,-7.62206 -1.99476,-2.84792 -2.78086,-2.95642 -10.3984,-1.43536 -4.53228,0.905 -8.7719,2.17684 -9.42138,2.82634 -0.6495,0.64948 -0.155,0.78722 1.09884,0.30606 3.35338,-1.2868 7.36716,8.23548 7.43646,17.64216 l 0.0576,7.8241 6.6615,-7.5 c 4.72502,-5.31974 6.6705,-8.82014 6.69238,-12.04124 z m -0.71914,9.79124 c 1.49324,-1.65 2.37748,-3 1.96498,-3 -0.4125,0 -1.97174,1.35 -3.46498,3 -1.49324,1.65 -2.37746,3 -1.96496,3 0.4125,0 1.97172,-1.35 3.46496,-3 z m 24.24343,-3.375 c -0.41612,-1.03124 -0.75658,-0.1874 -0.75658,1.875 0,2.0625 0.34046,2.90626 0.75658,1.875 0.41612,-1.03124 0.41612,-2.71874 0,-3.75 z m -98.49343,1.40564 c 0,-0.25816 -2.19374,-2.4519 -4.875,-4.875 l -4.874999,-4.40564 4.405639,4.875 c 4.10668,4.5442 5.34436,5.56448 5.34436,4.40564 z m 77.49342,-11.90564 c -0.41612,-1.03124 -0.75658,-0.1874 -0.75658,1.875 0,2.0625 0.34046,2.90626 0.75658,1.875 0.41612,-1.03124 0.41612,-2.71874 0,-3.75 z m -122.118419,2.2899 c -2.68124,-0.33272 -7.06874,-0.33272 -9.75,0 -2.68124,0.33274 -0.4875,0.605 4.875,0.605 5.3625,0 7.55626,-0.27226 4.875,-0.605 z m 15.75,0.0512 c -1.44374,-0.37728 -3.80624,-0.37728 -5.25,0 -1.44374,0.37728 -0.2625,0.68598 2.625,0.68598 2.8875,0 4.06876,-0.3087 2.625,-0.68598 z m 116.755779,-0.35748 c 1.29382,1.07376 2.19098,0.94996 2.97618,-0.4107 0.6182,-1.0713 0.57166,-1.44744 -0.1034,-0.83586 -0.67512,0.6116 -2.04378,0.43452 -3.04146,-0.39348 -1.26792,-1.05228 -2.4166,-0.7097 -3.81568,1.138 -1.69242,2.23508 -1.68232,2.35934 0.0652,0.80418 1.43072,-1.27312 2.6371,-1.36614 3.91912,-0.30214 z M 31.000808,172.63445 c -1.85624,-0.35754 -4.89374,-0.35754 -6.75,0 -1.85624,0.35752 -0.3375,0.65006 3.375,0.65006 3.7125,0 5.23126,-0.29254 3.375,-0.65006 z m 161.316042,-7.10864 c -0.3517,-2.45828 -1.3526,-2.98618 -4.94104,-2.60594 -2.475,0.26224 -5.175,1.20502 -6,2.09506 -1.03574,1.11738 -0.89534,1.27556 0.45356,0.5111 1.31806,-0.74698 2.51696,0.38552 3.68552,3.4814 1.63722,4.33746 1.88274,4.45208 4.48748,2.09484 1.51552,-1.37152 2.55704,-3.88094 2.31448,-5.57646 z m -176.316042,5.67382 c -1.03124,-0.41612 -2.71874,-0.41612 -3.75,0 -1.03124,0.41612 -0.1874,0.75658 1.875,0.75658 2.0625,0 2.90626,-0.34046 1.875,-0.75658 z m 84.697242,-2.86546 c 4.17094,-2.68812 5.8016,-2.75142 3.63524,-0.1412 -1.24594,1.50128 -1.14698,2.00002 0.39692,2.00002 1.13122,0 1.9001,-1.0675 1.7086,-2.37222 -0.1914,-1.3047 2.17286,-5.74844 5.2541,-9.87498 12.14412,-16.264 19.4329,-35.81566 19.4329,-52.12744 V 94.849071 l -8.83954,-8.7473 -8.83956,-8.74732 -0.98,6.54426 c -2.70872,18.088519 -9.1346,37.670799 -18.490599,56.348499 -6.4393,12.85498 -19.37062,30.91928 -21.28608,29.73546 -0.7463,-0.46124 -1.75736,-0.1906 -2.2468,0.60126 -1.4235,2.30326 26.40056,0.2342 30.254819,-2.24982 z m 18.05276,2.82488 c -1.44374,-0.37728 -3.80624,-0.37728 -5.25,0 -1.44374,0.3773 -0.2625,0.686 2.625,0.686 2.8875,0 4.06876,-0.3087 2.625,-0.686 z m 93.56635,-1.591 c 1.8658,-2.37908 1.81276,-2.43214 -0.56634,-0.56634 -2.49862,1.95956 -3.29322,3.19134 -2.05866,3.19134 0.31148,0 1.49272,-1.18124 2.625,-2.625 z m -80.78779,0.1412 c -1.01556,-0.41086 -3.04056,-0.43588 -4.5,-0.0554 -1.45946,0.3803 -0.62856,0.71648 1.84644,0.74706 2.475,0.0306 3.6691,-0.2806 2.65356,-0.6915 z m 73.09645,-0.51614 c 0,-0.825 -0.29766,-1.5 -0.66146,-1.5 -0.36382,0 -1.07866,0.675 -1.58854,1.5 -0.50988,0.825 -0.21222,1.5 0.66148,1.5 0.87368,0 1.58852,-0.675 1.58852,-1.5 z m -77.25001,-1.64012 c 4.125,-0.8037 8.7022,-1.65228 10.17156,-1.8857 1.46936,-0.23344 3.83186,-1.70688 5.25,-3.2743 2.34146,-2.58794 2.25042,-2.57874 -0.99068,0.1 -3.22236,2.66336 -3.11472,2.20786 1.10804,-4.68834 5.52244,-9.01878 8.39616,-16.74016 9.82744,-26.40536 1.58986,-10.73602 -0.97668,-17.63024 -9.60414,-25.79874 l -7.51222,-7.112479 -0.018,9.477479 c -0.01,5.21262 -0.92278,12.8525 -2.02884,16.9775 -2.86254,10.67554 -13.57124,31.26496 -19.91074,38.28204 l -5.3917,5.96796 5.79954,-0.0894 c 3.18976,-0.0492 9.17454,-0.747 13.29954,-1.5507 z m 16.875,0.60612 c -1.44374,-0.37728 -3.80624,-0.37728 -5.25,0 -1.44374,0.3773 -0.2625,0.686 2.625,0.686 2.8875,0 4.06876,-0.3087 2.625,-0.686 z m 76.87501,-7.66282 c 0.4125,-0.37172 -0.9375,-0.184 -3,0.41724 -2.0625,0.6012 -5.1,2.47444 -6.75,4.16278 -2.71166,2.77464 -2.4233,2.73452 3,-0.41724 3.3,-1.91782 6.3375,-3.79106 6.75,-4.16278 z m -63.63873,0.98466 c 1.7112,-1.5484 3.49986,-2.4267 3.9748,-1.95176 0.47492,0.47494 1.3729,0.0392 1.99548,-0.96806 0.77518,-1.25424 0.50578,-1.44454 -0.8547,-0.6037 -1.50874,0.93246 -1.69632,0.53714 -0.77972,-1.64326 6.87226,-16.34756 6.74284,-26.8734 -0.41854,-34.03478 l -4.28872,-4.28872 0.6895,4.69792 c 1.42538,9.71166 -4.24078,28.39698 -11.91482,39.29164 l -2.84368,4.0371 5.66456,-0.86056 c 3.1155,-0.4733 7.06464,-2.12742 8.77584,-3.67582 z m 8.54226,3.72824 c -1.01554,-0.41088 -3.04054,-0.43588 -4.5,-0.0554 -1.45944,0.3803 -0.62854,0.71648 1.84646,0.74706 2.475,0.0306 3.6691,-0.2806 2.65354,-0.6915 z m 111.13891,-2.76608 c 0.69898,-1.8215 -0.48458,-2.20718 -6.2145,-2.02526 -5.04278,0.1602 -5.78402,0.40898 -2.57794,0.86542 2.475,0.35238 5.14126,1.26374 5.925,2.02526 1.8394,1.78722 1.85086,1.78376 2.86744,-0.86542 z m -101.04245,-3.48326 c 2.0625,-1.34132 4.36876,-2.4563 5.125,-2.47776 0.75624,-0.0214 1.65138,-1.05148 1.9892,-2.28898 0.54596,-2 0.42038,-2 -1.13012,0 -1.41924,1.83068 -1.57356,1.55112 -0.82808,-1.5 2.79386,-11.43496 2.7952,-11.42584 -2.38584,-16.28136 -2.76108,-2.58762 -5.5264,-4.70788 -6.14516,-4.7117 -0.61874,-0.004 -1.125,3.27294 -1.125,7.28168 0,5.04326 -1.32674,9.9189 -4.3067,15.82672 l -4.30672,8.53812 4.68172,-0.97398 c 2.57494,-0.53568 6.3692,-2.0714 8.4317,-3.41274 z m -61.30866,0.1082 c 1.8658,-2.37908 1.81276,-2.43214 -0.56634,-0.56634 -1.44374,1.13228 -2.625,2.31352 -2.625,2.625 0,1.23456 1.23178,0.43996 3.19134,-2.05866 z m 70.30866,2.04994 c 0,-0.31626 -1.35092,-0.92832 -3.00206,-1.3601 -1.65114,-0.43178 -2.6238,-0.173 -2.16148,0.57506 0.80738,1.30636 5.16354,1.96864 5.16354,0.78504 z m 14.23938,-0.90776 c 0.52552,-0.8503 -0.0766,-1.10176 -1.41146,-0.58952 -2.59864,0.99718 -3.0741,2.07234 -0.91644,2.07234 0.7763,0 1.82388,-0.66728 2.3279,-1.48282 z m 30.01063,-0.018 c 0.50988,-0.825 0.21222,-1.5 -0.66146,-1.5 -0.8737,0 -1.58854,0.675 -1.58854,1.5 0,0.825 0.29766,1.5 0.66148,1.5 0.3638,0 1.07864,-0.675 1.58852,-1.5 z m 24.34376,0.59374 c -0.49846,-0.49842 -1.7922,-0.5517 -2.875,-0.1184 -1.1966,0.47882 -0.84118,0.83426 0.90624,0.90624 1.58124,0.065 2.4672,-0.28938 1.96876,-0.78784 z m 43.54874,-1.62436 c -1.43414,-0.37544 -4.13414,-0.38906 -6,-0.0304 -1.86588,0.35878 -0.6925,0.66598 2.6075,0.68262 3.3,0.016 4.82662,-0.27692 3.3925,-0.65236 z m -105.01751,-3.8697 c 2.58998,-2.02642 2.34638,-4.6852 -0.78338,-8.5503 -2.6581,-3.2826 -2.65866,-3.28212 -4.92666,4.10884 -2.2166,7.22352 -2.19876,7.37492 0.7834,6.65014 1.6784,-0.40792 3.8954,-1.40182 4.92664,-2.20868 z m 68.24459,-3.34012 c 0.45384,-4.02628 2.33536,-8.80614 4.67268,-11.87052 l 3.9129,-5.1301 -6.18834,2.43086 c -7.1405,2.80488 -11.75294,9.25032 -11.7612,16.4352 -0.004,4.36888 0.44132,4.875 4.2993,4.875 3.9885,0 4.36076,-0.49542 5.06466,-6.74044 z m 21.46062,2.61544 c 1.82268,-8.47294 5.79724,-15.50214 13.3609,-23.62936 4.28216,-4.60122 6.72222,-7.92848 5.42234,-7.3939 -1.2999,0.53458 -6.39994,2.36352 -11.33344,4.06432 -10.93358,3.7693 -22.62322,14.80768 -24.11772,22.77402 -1.32898,7.08404 -0.0902,8.30992 8.39766,8.30992 6.83896,0 7.44828,-0.30392 8.27026,-4.125 z m -67.68384,0.9573 c -0.56688,-0.91726 -0.21264,-2.1733 0.78724,-2.79126 1.3344,-0.8247 1.18602,-1.36604 -0.55782,-2.03522 -1.62604,-0.62396 -2.37578,-0.0586 -2.37578,1.79126 0,1.4866 0.45,3.15292 1,3.70292 1.57668,1.57668 2.2802,1.16688 1.14636,-0.6677 z m 18.85364,-1.99376 c 0,-2.01382 0.68602,-4.08546 1.52446,-4.60366 1.88394,-1.16432 0.44724,-3.77788 -1.98798,-3.61646 -1.22688,0.0814 -1.17976,0.36188 0.1504,0.89564 1.34764,0.54076 0.70668,1.91732 -2.10682,4.52478 -3.256,3.01756 -3.6333,4.0074 -1.93688,5.0814 3.3744,2.13634 4.3568,1.62184 4.3568,-2.2817 z m 2.52466,0.38022 c -0.47882,-1.1966 -0.83426,-0.84118 -0.90624,0.90624 -0.065,1.58124 0.28938,2.46718 0.78784,1.96876 0.49844,-0.49846 0.55172,-1.7922 0.1184,-2.875 z m 10.97534,-1.31736 c 0,-2.52924 0.7261,-5.95534 1.61354,-7.61356 1.4521,-2.71328 1.31366,-2.85444 -1.38366,-1.41086 -3.76788,2.0165 -9.22988,8.86648 -9.22988,11.5753 0,1.27526 1.69758,2.04772 4.5,2.04772 4.02144,0 4.5,-0.48904 4.5,-4.5986 z m 2.53948,-0.99786 c -0.3803,-1.45944 -0.71648,-0.62854 -0.74706,1.84646 -0.0306,2.475 0.2806,3.6691 0.6915,2.65354 0.41088,-1.01554 0.43588,-3.04054 0.0556,-4.5 z m 13.5,0 c -0.3803,-1.45944 -0.71648,-0.62854 -0.74706,1.84646 -0.0306,2.475 0.2806,3.6691 0.6915,2.65354 0.41088,-1.01554 0.43588,-3.04054 0.0556,-4.5 z m 47.7766,-1.37142 c 3.10442,-3.18016 4.35956,-4.09462 2.78918,-2.03212 l -2.85526,3.75 3.3842,-2.8658 c 1.8613,-1.5762 3.03638,-3.21362 2.61128,-3.63872 -0.98364,-0.98366 5.30168,-7.74548 7.19966,-7.74548 0.7822,0 0.4958,1.18124 -0.63648,2.625 -1.87194,2.38692 -1.8173,2.43556 0.6026,0.53624 1.46368,-1.1488 2.30126,-2.44872 1.86128,-2.88872 -1.01774,-1.01772 5.2581,-7.77252 7.22142,-7.77252 0.80904,0 0.1852,1.51874 -1.38648,3.375 l -2.85748,3.375 3.33964,-2.82548 c 1.83678,-1.554 3.00346,-3.36938 2.5926,-4.03416 -0.41086,-0.6648 3.89844,-4.96208 9.57624,-9.54954 10.4203,-8.4192 14.33264,-10.53882 10.55018,-5.71582 -1.87194,2.38692 -1.8173,2.43556 0.6026,0.53624 1.46368,-1.1488 2.31328,-2.4367 1.888,-2.86198 -0.42528,-0.42528 0.0594,-1.77646 1.07698,-3.00262 1.551,-1.86882 1.36694,-2.09596 -1.138,-1.40446 -1.64354,0.4537 -9.40074,2.34592 -17.23824,4.20492 -19.6649,4.6644 -24.74882,7.14706 -36.1752,17.66576 -5.45886,5.0252 -10.28502,8.77692 -10.72478,8.33714 -0.4398,-0.43978 -1.309,0.0246 -1.93158,1.03196 -0.72334,1.1704 -0.50682,1.4452 0.5998,0.76128 2.3181,-1.43266 2.2221,-0.98932 -1.26824,5.85676 -1.65,3.23638 -3,7.18534 -3,8.7755 0,2.61836 0.83374,2.81558 8.83582,2.08996 7.78444,-0.70588 9.50744,-1.48922 14.48026,-6.58334 z m -87.3388,3.38764 c 0.56796,-1.48006 -0.0714,-1.85278 -2.2163,-1.29188 -2.30664,0.60322 -2.54448,1.08632 -1.01278,2.05724 2.53664,1.60796 2.29652,1.66488 3.22908,-0.76536 z m 62.04738,-1.201 c -0.47882,-1.1966 -0.83426,-0.84118 -0.90624,0.90624 -0.065,1.58124 0.28938,2.46718 0.78784,1.96876 0.49844,-0.49846 0.55172,-1.7922 0.1184,-2.875 z m -88.50001,-1.5 c -0.47882,-1.1966 -0.83426,-0.84118 -0.90624,0.90624 -0.065,1.58124 0.28938,2.46718 0.78784,1.96876 0.49844,-0.49846 0.55172,-1.7922 0.1184,-2.875 z m 4.97535,2.61978 c 0,-0.36382 -0.675,-1.07866 -1.5,-1.58854 -0.82501,-0.50988 -1.50001,-0.21222 -1.50001,0.66148 0,0.87368 0.675,1.58852 1.50001,1.58852 0.825,0 1.5,-0.29766 1.5,-0.66146 z m 6,0 c 0,-0.36382 -0.675,-1.07866 -1.5,-1.58854 -0.825,-0.50988 -1.5,-0.21222 -1.5,0.66148 0,0.87368 0.675,1.58852 1.5,1.58852 0.825,0 1.5,-0.29766 1.5,-0.66146 z m 16.5,-8.39676 c 0,-2.98474 -2.81846,-2.57838 -6.06176,0.87396 l -3.49784,3.72328 4.7798,-1.66624 c 2.6289,-0.91644 4.7798,-2.23538 4.7798,-2.931 z m -6.65564,-1.81678 4.40564,-4.875 -4.875,4.40564 c -2.9297,2.64762 -4.875,3.59534 -4.875,2.375 0,-1.11686 -0.40508,-1.62554 -0.9002,-1.13044 -0.78014,0.78014 0.4005,4.0998 1.4581,4.0998 0.20946,0 2.36336,-2.19376 4.78646,-4.875 z m -31.31971,0.0938 c -0.47882,-1.1966 -0.83426,-0.84118 -0.90624,0.90624 -0.065,1.58124 0.28938,2.46718 0.78784,1.96876 0.49844,-0.49844 0.55172,-1.7922 0.1184,-2.875 z m 9.47534,2.7149 c 0,-0.31148 -1.18124,-1.49272 -2.625,-2.625 -2.37908,-1.8658 -2.43214,-1.81274 -0.56634,0.56634 1.95956,2.49862 3.19134,3.29322 3.19134,2.05866 z m 42.73355,-10.47952 c -1.08786,-2.58728 -2.80634,-4.70414 -3.81886,-4.70414 -3.12608,0 -7.8264,7.58974 -6.76714,10.92714 0.91942,2.89686 1.23296,2.93206 6.76402,0.7594 5.76202,-2.2634 5.787,-2.30902 3.82198,-6.9824 z m 1.86022,8.6396 c -0.49846,-0.49842 -1.7922,-0.55172 -2.875,-0.1184 -1.1966,0.47884 -0.84118,0.83428 0.90624,0.90626 1.58124,0.0652 2.4672,-0.2894 1.96876,-0.78784 z m -70.53517,-9.96874 c -0.35752,-1.85626 -0.65006,-0.3375 -0.65006,3.375 0,3.7125 0.29254,5.23126 0.65006,3.375 0.35754,-1.85626 0.35754,-4.89374 0,-6.75 z m 31.69743,4.11218 0.506,-4.48718 -3.83479,3.59304 c -4.03136,3.77722 -3.8657,6.64862 0.33762,5.85218 1.5033,-0.28484 2.68507,-2.24368 2.99117,-4.95804 z m 9.24398,2.1743 c 0,-0.77632 -0.675,-1.41148 -1.5,-1.41148 -0.825,0 -1.5,1.05234 -1.5,2.33852 0,1.2862 0.675,1.92136 1.5,1.41148 0.825,-0.50988 1.5,-1.56222 1.5,-2.33852 z m -56.00659,-6.28648 c -0.41612,-1.03124 -0.75658,-0.1874 -0.75658,1.875 0,2.0625 0.34046,2.90626 0.75658,1.875 0.41612,-1.03124 0.41612,-2.71874 0,-3.75 z m 38.08966,1.83054 c 3.69996,-1.98016 7.53257,-9.34138 6.08394,-11.6853 -0.78968,-1.27774 -2.12246,-0.7288 -4.57884,1.8859 -1.90572,2.02854 -5.54374,4.14482 -8.0845,4.70288 l -4.61958,1.01462 3.47412,2.81318 c 4.05822,3.28616 3.97942,3.2732 7.72486,1.26872 z m 18.29193,0.55104 c -1.03124,-0.41612 -2.71874,-0.41612 -3.75,0 -1.03124,0.41612 -0.1874,0.75658 1.875,0.75658 2.0625,0 2.90626,-0.34046 1.875,-0.75658 z m 40.40236,-0.32428 c 3.19402,-1.21196 3.43186,-2.05444 2.96442,-10.5 -0.27954,-5.05026 -0.95454,-9.17226 -1.5,-9.15998 -0.54548,0.012 -3.61836,2.24456 -6.8286,4.96066 -5.73808,4.85482 -5.8059,5.03206 -4.00866,10.47768 1.89438,5.74006 3.48414,6.4561 9.37284,4.22164 z m -36.8659,-4.3073 c 1.44224,-2.3182 0.98434,-2.63264 -3.91778,-2.69036 -4.61514,-0.0544 -5.43228,0.38818 -4.84734,2.625 0.90558,3.46288 6.62488,3.50552 8.76512,0.0654 z m 9.28854,0.825 c 2.44982,-2.4498 2.26228,-4.2 -0.45,-4.2 -1.2375,0 -2.25,0.2823 -2.25,0.62732 0,0.34502 -0.4097,1.69502 -0.91048,3 -1.07424,2.79944 1.04724,3.13594 3.61048,0.57268 z m 49.8,1.21048 c 0,-0.32424 -1.04756,-0.9915 -2.3279,-1.48282 -1.33488,-0.51224 -1.93698,-0.26076 -1.41148,0.58952 0.8809,1.4253 3.73938,2.10818 3.73938,0.8933 z m 26.34436,-4.28548 4.40564,-4.875 -4.875,4.40564 c -4.54418,4.10666 -5.56448,5.34436 -4.40564,5.34436 0.25816,0 2.4519,-2.19376 4.875,-4.875 z m -26.06968,-4.733 c -0.31828,-1.8033 0.1298,-2.31896 1.35676,-1.56076 1.18002,0.72928 1.44576,0.50722 0.74668,-0.62394 -0.59698,-0.96594 -1.6799,-1.38882 -2.40652,-0.93976 -2.2587,1.39596 -4.78126,-5.32462 -4.2175,-11.23622 0.53224,-5.58112 0.5035,-5.61404 -2.93496,-3.36108 -6.3846,4.18336 -9.83816,15.8229 -6.93758,23.38172 1.3593,3.54226 15.06598,-1.84778 14.39312,-5.65996 z m -17.2003,-5.017 c -0.34368,-2.26874 -0.62488,-0.4125 -0.62488,4.125 0,4.5375 0.2812,6.39374 0.62488,4.125 0.3437,-2.26874 0.3437,-5.98126 0,-8.25 z m -84.38845,8.72864 c 0.47466,-0.76798 0.28948,-1.7508 -0.41146,-2.184 -0.70098,-0.43322 -1.27448,0.1952 -1.27448,1.39634 0,2.52926 0.473,2.75024 1.68594,0.78766 z m 12.40782,0.4901 c -0.49846,-0.49842 -1.7922,-0.55172 -2.875,-0.1184 -1.1966,0.47884 -0.84118,0.83428 0.90624,0.90626 1.58124,0.0652 2.4672,-0.2894 1.96876,-0.78784 z m -85.139699,-5.84374 c 0,-0.825 -0.65432,-0.4875 -1.45406,0.75 -0.79972,1.2375 -1.45406,2.925 -1.45406,3.75 0,0.825 0.65434,0.4875 1.45406,-0.75 0.79974,-1.2375 1.45406,-2.925 1.45406,-3.75 z m 90.785319,3.76718 c 0.52552,-0.85028 -0.0766,-1.10176 -1.41146,-0.58952 -2.59864,0.9972 -3.0741,2.07234 -0.91644,2.07234 0.7763,0 1.82388,-0.66726 2.3279,-1.48282 z m 150.95197,-1.14218 c 1.8658,-2.37908 1.81276,-2.43214 -0.56634,-0.56634 -2.49862,1.95956 -3.29322,3.19134 -2.05866,3.19134 0.31148,0 1.49272,-1.18124 2.625,-2.625 z m -153.16131,-1.14052 c 2.40956,-1.24604 5.18076,-3.75986 6.15822,-5.58624 1.72446,-3.2222 2.1024,-14.35758 0.5403,-15.91966 -0.42542,-0.42544 -2.95714,1.3359 -5.62602,3.91408 -5.20062,5.02386 -16.44406,10.74482 -21.35254,10.86474 -2.51732,0.0616 -2.1553,0.78434 2.25,4.4926 5.89104,4.9589 11.43332,5.64576 18.03004,2.23448 z m 28.88941,1.28692 c -1.18986,-0.48216 -0.45672,-1.92348 2.09484,-4.11824 l 3.9254,-3.37648 -9.96984,-0.1512 c -5.48342,-0.0832 -9.96984,0.39068 -9.96984,1.05298 0,1.88858 3.909,4.65984 8.5291,6.04666 4.56378,1.36992 8.37654,1.7563 5.39034,0.54626 z m 21.57516,-5.35814 c 3.82004,-2.74334 5.87382,-5.0665 4.74522,-5.3676 -1.0944,-0.292 -3.80394,-1.10316 -6.02118,-1.8026 -3.52224,-1.11112 -4.52732,-0.62152 -7.95808,3.87644 -6.90814,9.05702 -1.48488,10.9915 9.23404,3.29376 z m -106.46993,0.0554 c -0.47884,-1.1966 -0.83428,-0.84118 -0.90626,0.90624 -0.0652,1.58124 0.2894,2.46718 0.78784,1.96876 0.49844,-0.49844 0.55172,-1.7922 0.1184,-2.875 z m 110.16667,0.65624 c 1.8658,-2.37908 1.81276,-2.43214 -0.56634,-0.56634 -2.49862,1.95956 -3.29322,3.19134 -2.05866,3.19134 0.31148,0 1.49272,-1.18124 2.625,-2.625 z m 54.81566,-2.14498 13.757,-4.81216 -2.83656,-5.5601 c -1.64646,-3.2273 -2.98602,-9.344879 -3.1928,-14.580859 l -0.35626,-9.02074 -5.7807,2.9491 c -18.51814,9.44724 -25.09768,16.084099 -25.09768,25.316279 0,3.15724 5.5611,10.47062 7.98388,10.49954 0.97136,0.012 7.95678,-2.14438 15.52312,-4.79106 z m 12.189,0.0504 c -1.0703,-0.67894 -2.621,-1.23444 -3.446,-1.23444 -0.825,0 -0.56978,0.5892 0.56718,1.30932 1.2717,0.8055 1.59382,2.09538 0.83706,3.35204 -0.98378,1.63364 -0.70766,1.61864 1.37884,-0.075 2.05176,-1.66536 2.19334,-2.38122 0.66292,-3.35204 z m 39.49534,0.59462 c 1.8658,-2.37908 1.81276,-2.43214 -0.56634,-0.56634 -2.49862,1.95956 -3.29322,3.19134 -2.05866,3.19134 0.31148,0 1.49272,-1.18124 2.625,-2.625 z m -150.00001,-1.5 c 1.86581,-2.37908 1.81277,-2.43214 -0.56634,-0.56634 -2.49862,1.95956 -3.29322,3.19134 -2.05866,3.19134 0.31148,0 1.49272,-1.18124 2.625,-2.625 z m -44.16668,-2.15624 c -0.47882,-1.1966 -0.83426,-0.84118 -0.90624,0.90624 -0.0652,1.58124 0.28938,2.46718 0.78784,1.96876 0.49844,-0.49844 0.55172,-1.7922 0.1184,-2.875 z m -20.93196,-14.34376 c -0.3236,-3.093739 -0.58838,-0.5625 -0.58838,5.625 0,6.1875 0.26478,8.71876 0.58838,5.625 0.32362,-3.09374 0.32362,-8.15624 0,-11.25 z m 115.09325,14.72864 c 0.47466,-0.76798 0.28948,-1.7508 -0.41146,-2.184 -0.70098,-0.43322 -1.27448,0.1952 -1.27448,1.39634 0,2.52926 0.473,2.75024 1.68594,0.78766 z m -79.78241,-1.08754 c -1.01554,-0.4109 -3.04054,-0.4359 -4.5,-0.0556 -1.45944,0.38032 -0.62854,0.7165 1.84646,0.74706 2.475,0.0306 3.6691,-0.2806 2.65354,-0.69148 z m 40.47147,-0.01 c -1.03124,-0.41612 -2.71874,-0.41612 -3.75,0 -1.03124,0.41612 -0.1874,0.75658 1.875,0.75658 2.0625,0 2.90626,-0.34046 1.875,-0.75658 z m 12.71876,0.0872 c -0.49846,-0.49842 -1.7922,-0.55172 -2.875,-0.1184 -1.1966,0.47884 -0.84118,0.83428 0.90624,0.90626 1.58124,0.0652 2.4672,-0.2894 1.96876,-0.78784 z m 49.44572,-4.6902 c -0.3803,-1.4595 -0.71648,-0.6286 -0.74706,1.8464 -0.0306,2.475 0.2806,3.6691 0.6915,2.65354 0.41088,-1.01554 0.43588,-3.04054 0.0556,-4.5 z m -95.53949,2.5964 c 1.2375,-0.79974 1.575,-1.45406 0.75,-1.45406 -0.825,0 -2.5125,0.65432 -3.75,1.45406 -1.2375,0.79974 -1.575,1.45406 -0.75,1.45406 0.825,0 2.5125,-0.65432 3.75,-1.45406 z m 48.69063,0.20818 c -0.28834,-0.29802 1.47852,-2.22706 3.92636,-4.2868 2.44786,-2.05972 5.1087,-4.97454 5.91298,-6.47736 1.3337,-2.49204 1.03472,-2.60976 -3.39892,-1.3382 -6.40238,1.83618 -26.08908,1.78978 -29.56354,-0.0698 -2.49513,-1.33534 -2.62967,-0.99564 -1.53254,3.86884 1.47302,6.5312 1.62386,6.6868 7.76392,8.00884 4.99316,1.07508 17.86418,1.2994 16.89174,0.29438 z m -119.40147,-7.70818 c 0,-1.41822 -0.47658,-1.14096 -1.28916,0.75 -0.70902,1.65 -1.28914,4.0125 -1.28914,5.25 0,1.41822 0.47658,1.14096 1.28914,-0.75 0.70904,-1.65 1.28916,-4.0125 1.28916,-5.25 z m 71.97242,3.58788 c 12.8705,-6.41364 18.01566,-17.822719 14.29616,-31.700799 -0.84602,-3.15662 -1.16994,-2.99208 -5.28032,2.68214 -2.5446,3.51272 -5.08318,5.60984 -6.05998,5.00616 -0.98744,-0.6103 -1.26432,-0.36478 -0.6711,0.59508 1.3434,2.17368 -7.4019,8.70602 -15.46294,11.55012 -3.55332,1.25368 -9.37392,2.279419 -12.93468,2.279419 h -6.47408 l 7.03768,6.71524 c 8.51106,8.12108 13.8193,8.71792 25.54926,2.87264 z m 54.42977,1.28712 c 1.8658,-2.37908 1.81276,-2.43214 -0.56634,-0.56634 -2.49862,1.95956 -3.29322,3.19134 -2.05866,3.19134 0.31148,0 1.49272,-1.18124 2.625,-2.625 z m 12.90242,1.71874 c -0.49846,-0.49842 -1.7922,-0.55172 -2.875,-0.1184 -1.1966,0.47884 -0.84118,0.83428 0.90624,0.90626 1.58124,0.0652 2.4672,-0.2894 1.96876,-0.78784 z m 7.15624,-0.59374 c -0.50988,-0.825 -1.73096,-1.48966 -2.71352,-1.47704 -1.07342,0.014 -0.88842,0.60336 0.46352,1.47704 2.88168,1.86228 3.40096,1.86228 2.25,0 z m 78.28996,-2.72794 c 5.93446,-1.43108 11.16984,-2.98188 11.63418,-3.4462 0.46434,-0.46434 -0.67864,-2.13386 -2.53994,-3.71006 l -3.3842,-2.865799 2.85748,3.374999 c 1.57296,1.85782 2.08824,3.375 1.1463,3.375 -0.94116,0 -3.57704,-2.81946 -5.8575,-6.265459 -3.58052,-5.41054 -4.14628,-7.7643 -4.14628,-17.25 0,-6.0415 -0.28292,-10.98454 -0.6287,-10.98454 -1.5206,0 -17.47976,9.57012 -18.47334,11.07776 -2.38632,3.62106 -1.19294,19.580059 1.8356,24.547239 3.42174,5.61208 3.26636,5.59306 17.5564,2.14706 z m -178.03997,0.6616 c 0,-0.31148 -1.18124,-1.49272 -2.625,-2.625 -2.37908,-1.8658 -2.43214,-1.81274 -0.56632,0.56634 1.95954,2.49862 3.19132,3.29322 3.19132,2.05866 z m 106.92799,-4.17092 c 6.64022,-3.36546 6.07232,-5.76274 -1.36512,-5.76274 -2.89304,0 -6.545,-0.687679 -8.11548,-1.528159 -2.3636,-1.26496 -3.7494,-0.5545 -8.04608,4.124999 -4.4517,4.84834 -4.83196,5.80318 -2.67098,6.70692 3.66014,1.53068 13.64466,-0.21978 20.19766,-3.54102 z m -60.93457,-1.63774 c -0.41612,-1.03124 -0.75658,-0.1874 -0.75658,1.875 0,2.0625 0.34046,2.90626 0.75658,1.875 0.41612,-1.03124 0.41612,-2.71874 0,-3.75 z m 112.02421,2.5603 c -0.48854,-1.27308 -1.20994,-1.99298 -1.60312,-1.59978 -0.3932,0.39318 -0.26998,1.4348 0.27382,2.31468 1.47908,2.3932 2.34358,1.92826 1.3293,-0.7149 z m 57.23238,-0.6853 c 2.62636,-2.90208 2.61994,-3 -0.1962,-3 -1.91104,0 -2.91104,1.03056 -2.91104,3 0,1.65 0.0882,3 0.1962,3 0.1078,0 1.4178,-1.35 2.91104,-3 z m 4.8947,-6.705659 c 0.21708,-0.1836 -0.70042,-2.95468 -2.03888,-6.15806 -3.56432,-8.5306 -2.34864,-30.597702 2.16484,-39.296222 l 3.32598,-6.40994 -19.32506,9.6838 -19.32506,9.683802 -1.91614,6.8438 c -1.79294,6.40372 -1.39718,15.0513 0.9713,21.22342 0.74208,1.9339 0.48386,2.30318 -0.97854,1.39936 -1.33172,-0.82306 -1.62884,-0.64886 -0.90126,0.5284 0.59698,0.96594 1.61048,1.43172 2.25222,1.0351 0.64176,-0.39662 2.98924,1.18106 5.21664,3.505959 l 4.04982,4.2271 13.05472,-2.9664 c 7.1801,-1.63152 13.23234,-3.116579 13.44942,-3.300119 z m -12.05094,5.799399 c -0.49846,-0.49842 -1.7922,-0.55172 -2.875,-0.1184 -1.1966,0.47884 -0.84118,0.83428 0.90624,0.90626 1.58124,0.0652 2.4672,-0.2894 1.96876,-0.78784 z m -119.2082,-7.752559 c -0.55154,-1.4373 -1.17096,-1.73498 -1.50776,-0.7246 -0.3144,0.94318 -1.70926,1.36434 -3.09972,0.9359 -2.1813,-0.67214 -2.16366,-0.54506 0.1284,0.92646 1.4868,0.95448 2.18562,2.490479 1.58706,3.488259 -0.6721,1.12038 -0.1596,1.04538 1.3793,-0.20186 1.40872,-1.14174 2.0512,-3.020779 1.51266,-4.424159 z m 29.99082,0.9352 c -1.29816,-1.29816 -1.664,-0.93232 -1.48214,1.48214 0.159,2.111419 0.74744,2.699799 1.72362,1.723619 0.9762,-0.97618 0.89376,-2.070519 -0.24148,-3.205759 z m -48.75138,2.130919 c -3.09374,-0.32362 -8.15624,-0.32362 -11.25,0 -3.09374,0.32362 -0.5625,0.5884 5.625,0.5884 6.1875,0 8.71876,-0.26478 5.625,-0.5884 z m 85.36842,-3.782299 c -0.41612,-1.03124 -0.75658,-0.1874 -0.75658,1.875 0,2.062499 0.34046,2.906259 0.75658,1.874999 0.41612,-1.031239 0.41612,-2.718739 0,-3.749999 z m 78.5203,1.14152 c -1.87356,-2.2575 -4.51372,-1.77668 -4.51372,0.822 0,0.77632 1.43266,1.411479 3.18366,1.411479 2.6494,0 2.8726,-0.374819 1.33006,-2.233479 z m -277.98905,-2.54776 c -0.47884,-1.1966 -0.83428,-0.84118 -0.90626,0.90624 -0.0652,1.58124 0.2894,2.46718 0.78784,1.96876 0.49844,-0.49844 0.55172,-1.7922 0.1184,-2.875 z m 46.62718,2.20946 c -2.25396,-0.34226 -6.30396,-0.34916 -9,-0.016 -2.69602,0.33384 -0.85186,0.61388 4.09814,0.6223 4.95,0.008 7.15584,-0.26472 4.90186,-0.60698 z m 83.70429,-3.23848 c 9.45994,-4.13892 33.62922,-27.34998 24.64386,-23.66682 -2.8875,1.1836 -10.5738,3.326 -17.08068,4.76088 -13.57564,2.99366 -33.74514,2.43368 -43.72876,-1.21408 l -6.05945,-2.21398 1.10742,9.94714 c 0.60906,5.47092 1.14208,10.68772 1.18444,11.5929 0.2803,5.98906 26.85173,6.517359 39.93317,0.79396 z m 20.5474,3.32636 c -1.01554,-0.4109 -3.04054,-0.4359 -4.5,-0.0556 -1.45944,0.38032 -0.62854,0.7165 1.84646,0.74706 2.475,0.0306 3.6691,-0.2806 2.65354,-0.69148 z m -7.90354,-1.08244 c 0,-0.31148 -1.18124,-1.49272 -2.625,-2.625 -2.37908,-1.8658 -2.43214,-1.81274 -0.56634,0.56634 1.95956,2.49862 3.19134,3.29322 3.19134,2.05866 z m 37.93288,-8.73024 c 7.25058,-4.11398 14.05684,-7.1446 15.125,-6.7347 1.06816,0.40988 1.94212,-0.0694 1.94212,-1.06524 0,-1.13836 -1.59118,-1.57698 -4.28596,-1.18148 -4.57664,0.67172 -16.21404,-5.77052 -16.21404,-8.97576 0,-0.94196 1.51718,-0.42668 3.375,1.14628 l 3.375,2.85748 -2.82548,-3.33962 c -1.554,-1.8368 -3.36876,-3.00386 -4.0328,-2.59346 -0.66404,0.4104 -1.78536,-0.28668 -2.49184,-1.54908 -1.03122,-1.8427 -4.31654,0.40194 -16.662,11.38394 -8.45766,7.52356 -15.12496,14.44848 -14.81622,15.38872 0.66396,2.0221 11.63522,3.60128 19.07834,2.74608 2.8875,-0.33176 11.1823,-3.9692 18.43288,-8.08316 z m 108.99888,-2.66278 c 11.0409,-6.57764 20.80422,-12.26586 21.6963,-12.64048 0.89208,-0.37462 -3.77806,-5.71702 -10.37806,-11.872002 -6.6,-6.15498 -12,-11.8855 -12,-12.73452 0,-0.849 -0.61448,-2.10614 -1.3655,-2.79364 -0.79332,-0.72624 -0.91336,-0.46436 -0.28646,0.625 1.40126,2.43496 0.85458,2.36972 -5.12056,-0.61106 -4.94822,-2.4685 -5.0082,-2.45526 -8.49156,1.875 -8.74704,10.87372 -12.37858,32.784302 -7.40622,44.684862 1.24698,2.98442 2.49458,5.4262 2.77248,5.4262 0.27788,0 9.5387,-5.3817 20.57958,-11.95936 z m -222.58063,4.2957 c 0.56004,-0.90614 -0.75238,-0.48738 -2.91646,0.93058 -2.16406,1.41796 -3.93468,2.86172 -3.93468,3.20838 0,1.08506 5.78096,-2.40736 6.85114,-4.13896 z m 157.67353,1.38242 c -0.47882,-1.1966 -0.83426,-0.84118 -0.90624,0.90624 -0.065,1.58124 0.28938,2.46718 0.78784,1.96876 0.49844,-0.49844 0.55172,-1.7922 0.1184,-2.875 z m -223.49067,-5.34256 c -0.3773,-1.44376 -0.68598,-0.2625 -0.68598,2.625 0,2.8875 0.30868,4.06876 0.68598,2.625 0.37728,-1.44376 0.37728,-3.80624 0,-5.25 z m 22.966,6.55866 c 0,-0.31148 -1.18124,-1.49272 -2.625,-2.625 -2.37908,-1.8658 -2.43214,-1.81274 -0.56632,0.56634 1.95954,2.49862 3.19132,3.29322 3.19132,2.05866 z m 174.99343,-7.30866 c -0.41612,-1.03124 -0.75658,-0.1874 -0.75658,1.875 0,2.0625 0.34046,2.90626 0.75658,1.875 0.41612,-1.03124 0.41612,-2.71874 0,-3.75 z m -112.45395,-2.22146 c -0.3803,-1.45944 -0.71648,-0.62854 -0.74706,1.84646 -0.0306,2.475 0.2806,3.6691 0.6915,2.65354 0.41088,-1.01554 0.43588,-3.04054 0.0556,-4.5 z m 136.51913,-3.77854 c -0.35752,-1.85626 -0.65006,-0.3375 -0.65006,3.375 0,3.7125 0.29254,5.23126 0.65006,3.375 0.35754,-1.85626 0.35754,-4.89374 0,-6.75 z m 38.93482,4.5 c -0.41612,-1.03124 -0.75658,-0.1874 -0.75658,1.875 0,2.0625 0.34046,2.90626 0.75658,1.875 0.41612,-1.03124 0.41612,-2.71874 0,-3.75 z m -182.49343,-8.625 c 0.88306,-1.65 1.26806,-3 0.85556,-3 -0.4125,0 -1.4725,1.35 -2.35556,3 -0.88304,1.65 -1.26806,3 -0.85556,3 0.4125,0 1.47252,-1.35 2.35556,-3 z m 43.09157,0.4053 c -3.11216,-0.32472 -7.83716,-0.31926 -10.5,0.012 -2.66286,0.33136 -0.1166,0.59704 5.65844,0.59038 5.775,-0.006 7.9537,-0.27778 4.84156,-0.60248 z m 89.97414,-5.07956 11.185,-6.17426 -4.54908,-4.700742 c -2.502,-2.5854 -6.10216,-8.20102 -8.00036,-12.47912 l -3.45126,-7.7784 -14.625,10.47982 c -8.04374,5.7639 -14.625,11.42028 -14.625,12.56974 0,5.339582 12.59928,13.929462 20.81534,14.191382 1.13594,0.0362 7.0986,-2.71258 13.25036,-6.10842 z m -108.6907,3.68084 c -1.03124,-0.41612 -2.71874,-0.41612 -3.75,0 -1.03124,0.41612 -0.1874,0.75658 1.875,0.75658 2.0625,0 2.90626,-0.34046 1.875,-0.75658 z m 32.21876,0.0872 c -0.49846,-0.49844 -1.7922,-0.55172 -2.875,-0.1184 -1.1966,0.47884 -0.84118,0.83428 0.90624,0.90624 1.58124,0.0652 2.4672,-0.28938 1.96876,-0.78782 z m 24.59758,-1.71874 c 1.8658,-2.37908 1.81276,-2.43214 -0.56634,-0.56634 -1.44374,1.13228 -2.625,2.31352 -2.625,2.625 0,1.23456 1.23178,0.43996 3.19134,-2.05866 z m -132.51607,0.0244 c -3.89108,-0.30788 -10.64108,-0.31106 -15,-0.008 -4.3589,0.30392 -1.17528,0.5558 7.07472,0.55972 8.25,0.004 11.81638,-0.2448 7.92528,-0.55266 z m 108.51771,-1.29568 c 17.92224,-4.07632 34.14864,-11.366382 47.80702,-21.478322 7.0125,-5.1917 12.9796,-9.65464 13.26022,-9.91768 0.2806,-0.26302 -4.4444,0.8006 -10.5,2.3636 -30.21146,7.79784 -68.7099,9.3857 -90.2084,3.72064 -4.784,-1.26064 -9.00275,-2.29206 -9.37501,-2.29206 -0.37226,0 -0.67682,5.04516 -0.67682,11.21148 0,10.912802 0.1186,11.272802 4.45127,13.513322 10.70474,5.53564 28.56452,6.67218 45.24172,2.87902 z m 5.40078,1.48992 c -0.49846,-0.49842 -1.7922,-0.55172 -2.875,-0.1184 -1.1966,0.47884 -0.84118,0.83428 0.90624,0.90626 1.58124,0.0652 2.4672,-0.2894 1.96876,-0.78784 z m -98.19023,-1.57764 c -1.01554,-0.4109 -3.04054,-0.4359 -4.49998,-0.0556 -1.45946,0.3803 -0.62856,0.71648 1.84644,0.74706 2.475,0.0306 3.6691,-0.2806 2.65354,-0.69148 z m 106.09647,-0.5161 c 2.74196,-1.77198 0.37364,-1.77198 -3.75,0 -1.9781,0.85002 -2.23358,1.31724 -0.75,1.3716 1.2375,0.0454 3.2625,-0.57186 4.5,-1.3716 z m 111.99342,-3.375 c -0.41612,-1.03124 -0.75658,-0.1874 -0.75658,1.875 0,2.0625 0.34046,2.90626 0.75658,1.875 0.41612,-1.03124 0.41612,-2.71874 0,-3.75 z m 53.00658,2.80866 c 0,-0.31148 -1.18124,-1.49272 -2.625,-2.625 -2.37908,-1.8658 -2.43214,-1.81274 -0.56634,0.56634 1.95956,2.49862 3.19134,3.29322 3.19134,2.05866 z m 7.125,-0.9518 c -0.20624,-0.83498 7.63508,-5.804762 17.42516,-11.043962 l 17.80016,-9.52582 -18.7674,-9.95604 c -10.32206,-5.47582 -19.27682,-9.95604 -19.89948,-9.95604 -1.20836,0 0.4265,38.655342 1.72362,40.754142 1.07154,1.7338 2.17044,1.55962 1.71794,-0.27228 z m -265.78671,-2.3146 c 2.74548,-2.19958 2.6976,-2.2308 -0.8383,-0.54682 -4.59154,2.1867 -5.4425,2.87956 -3.5367,2.87956 0.80482,0 2.77358,-1.04974 4.375,-2.33274 z M 426.2002,57.067849 c -0.34368,-2.26874 -0.62488,-0.4125 -0.62488,4.125 0,4.537502 0.2812,6.393742 0.62488,4.125002 0.3437,-2.26874 0.3437,-5.981262 0,-8.250002 z m -232.47413,-8.21036 c -0.31688,-3.52804 -0.5806,-1.01464 -0.58604,5.58536 -0.006,6.6 0.25382,9.486602 0.57612,6.41464 0.32232,-3.07194 0.32678,-8.47194 0.01,-12 z m 79.49351,15.929102 c -0.49846,-0.49842 -1.7922,-0.55172 -2.875,-0.1184 -1.1966,0.47884 -0.84118,0.83428 0.90624,0.90626 1.58124,0.0652 2.4672,-0.2894 1.96876,-0.78784 z m 149.4927,-17.468742 c -0.54888,-10.10626 -1.14616,-18.55954 -1.3273,-18.7851 -0.47382,-0.59 -25.27538,10.11578 -26.71118,11.5301 -0.66112,0.65122 0.66332,2.40624 2.94314,3.90006 2.27984,1.4938 8.7003,6.99414 14.26764,12.22298 5.56738,5.22882 10.5057,9.506962 10.97406,9.506962 0.46838,0 0.4025,-8.268742 -0.1464,-18.375002 z m -67.2596,4.89912 c 19.98836,-9.96304 21.07288,-8.55816 -10.5122,-13.61748 -10.68942,-1.71226 -19.92402,-3.41522 -20.52134,-3.78438 -0.59732,-0.36916 -1.51816,0.028 -2.04632,0.8826 -1.5431,2.4968 2.1253,11.59804 7.5273,18.67504 2.7489,3.60128 4.56358,6.98222 4.03258,7.51322 -1.62618,1.626182 3.29586,-0.5853 21.51998,-9.669 z m 56.17314,7.02014 c 0,-0.25068 -2.53124,-2.78192 -5.625,-5.625 l -5.625,-5.16926 5.16926,5.625 c 4.81142,5.23562 6.08074,6.31468 6.08074,5.16926 z m 48,-4.89982 c 0,-0.4125 -1.35,-0.0274 -3,0.85556 -1.65,0.88306 -3,1.94306 -3,2.35556 0,0.4125 1.35,0.0274 3,-0.85556 1.65,-0.88306 3,-1.94306 3,-2.35556 z m -272.80867,-6.26944 c 1.8658,-2.37908 1.81276,-2.43214 -0.56634,-0.56634 -1.44374,1.13228 -2.625,2.31352 -2.625,2.625 0,1.23456 1.23178,0.43996 3.19134,-2.05866 z m 237.90893,-15.71036 c -0.31688,-3.52804 -0.5806,-1.01464 -0.58604,5.58536 -0.006,6.6 0.25382,9.4866 0.57612,6.41464 0.32232,-3.07194 0.32678,-8.47194 0.01,-12 z M 250.8011,46.592349 c -3.89108,-0.30788 -10.64108,-0.31106 -15,-0.008 -4.3589,0.30396 -1.17528,0.55586 7.07472,0.55976 8.25,0.004 11.81638,-0.24478 7.92528,-0.55266 z m -30.77174,-1.3834 c -1.01554,-0.4109 -3.04054,-0.4359 -4.5,-0.0556 -1.45944,0.38032 -0.62854,0.7165 1.84646,0.74706 2.475,0.0306 3.6691,-0.2806 2.65354,-0.69148 z m 45.72146,-0.05 c -1.44374,-0.3773 -3.80624,-0.3773 -5.25,0 -1.44374,0.37728 -0.2625,0.68598 2.625,0.68598 2.8875,0 4.06876,-0.3087 2.625,-0.68598 z m -54.75,-1.45944 c -1.03124,-0.41612 -2.71874,-0.41612 -3.75,0 -1.03124,0.41612 -0.1874,0.75658 1.875,0.75658 2.0625,0 2.90626,-0.34046 1.875,-0.75658 z m 64.5,0 c -1.03124,-0.41612 -2.71874,-0.41612 -3.75,0 -1.03124,0.41612 -0.1874,0.75658 1.875,0.75658 2.0625,0 2.90626,-0.34046 1.875,-0.75658 z m 190,0.42388 c -1.5254,-1.39008 -16.375,-8.40404 -16.375,-7.73448 0,0.91308 13.70752,8.13678 15.625,8.23418 0.75624,0.0384 1.09374,-0.1864 0.75,-0.4997 z m -263.125,-2.43046 c -4.12365,-1.77198 -6.49197,-1.77198 -3.75001,0 1.2375,0.79974 3.26251,1.41696 4.50001,1.3716 1.4836,-0.0544 1.22812,-0.52158 -0.75,-1.3716 z m 82.15354,0.5161 c -1.01554,-0.4109 -3.04054,-0.4359 -4.5,-0.0556 -1.45944,0.38032 -0.62854,0.7165 1.84646,0.74706 2.475,0.0306 3.6691,-0.2806 2.65354,-0.69148 z m 205.96072,-3.70096 c 0.4723,-0.7642 -0.0352,-1.204 -1.12776,-0.9773 -1.09258,0.22668 -1.77966,-0.54584 -1.52686,-1.71674 0.38642,-1.78978 0.0748,-1.80944 -1.9569,-0.1234 -1.32908,1.10304 -3.06078,3.2093 -3.84816,4.6806 -1.29916,2.42748 -1.01368,2.52934 3.08464,1.10066 2.48396,-0.86592 4.90274,-2.19966 5.37504,-2.96386 z m -199.2705,2.2786 c -0.49846,-0.49842 -1.7922,-0.55172 -2.875,-0.1184 -1.1966,0.47884 -0.84118,0.83428 0.90624,0.90626 1.58124,0.0652 2.4672,-0.2894 1.96876,-0.78784 z m 84.78124,-0.0872 c -1.03124,-0.41612 -2.71874,-0.41612 -3.75,0 -1.03124,0.41612 -0.1874,0.75658 1.875,0.75658 2.0625,0 2.90626,-0.34046 1.875,-0.75658 z m -78.78124,-1.41284 c -0.49846,-0.49842 -1.7922,-0.55172 -2.875,-0.1184 -1.1966,0.47884 -0.84118,0.83428 0.90624,0.90626 1.58124,0.0652 2.4672,-0.2894 1.96876,-0.78784 z m 17.5512,-3.7637 c -1.47212,-2.38194 -3.46392,-1.40182 -3.2383,1.5935 0.1656,2.19696 0.6974,2.5275 2.14026,1.33002 1.05604,-0.87642 1.55016,-2.192 1.09804,-2.92352 z m 52.23004,3.67654 c -1.03124,-0.41612 -2.71874,-0.41612 -3.75,0 -1.03124,0.41612 -0.1874,0.75658 1.875,0.75658 2.0625,0 2.90626,-0.34046 1.875,-0.75658 z m -63.78124,-1.41284 c -0.49846,-0.49842 -1.7922,-0.55172 -2.875,-0.1184 -1.1966,0.47884 -0.84118,0.83428 0.90624,0.90626 1.58124,0.0652 2.4672,-0.2894 1.96876,-0.78784 z m 54.80978,-0.0776 c -1.01554,-0.4109 -3.04054,-0.4359 -4.5,-0.0556 -1.45944,0.38032 -0.62854,0.7165 1.84646,0.74706 2.475,0.0306 3.6691,-0.2806 2.65354,-0.69148 z m -164.37889,-3.79734 c -0.47882,-1.1966 -0.83426,-0.84118 -0.90624,0.90624 -0.065,1.58124 0.28938,2.46718 0.78784,1.96876 0.49844,-0.49844 0.55172,-1.7922 0.1184,-2.875 z m 115.56911,2.37498 c -0.49846,-0.49842 -1.7922,-0.55172 -2.875,-0.1184 -1.1966,0.47884 -0.84118,0.83428 0.90624,0.90626 1.58124,0.0652 2.4672,-0.2894 1.96876,-0.78784 z m 38.28124,-0.0872 c -1.03124,-0.41612 -2.71874,-0.41612 -3.75,0 -1.03124,0.41612 -0.1874,0.75658 1.875,0.75658 2.0625,0 2.90626,-0.34046 1.875,-0.75658 z m 148.86438,-0.4894 c 0.54436,-0.88078 -0.1286,-1.0818 -1.65754,-0.4951 -1.88458,0.72318 -2.24512,0.45564 -1.34614,-0.99894 0.82306,-1.33172 0.64886,-1.62884 -0.5284,-0.90126 -0.96592,0.59698 -1.3679,1.71378 -0.89324,2.48176 1.12688,1.82334 3.2709,1.78146 4.42532,-0.0864 z m -157.86438,-1.0106 c -1.03124,-0.41612 -2.71874,-0.41612 -3.75,0 -1.03124,0.41612 -0.1874,0.75658 1.875,0.75658 2.0625,0 2.90626,-0.34046 1.875,-0.75658 z m -8.28124,-1.41284 c -0.49846,-0.49842 -1.7922,-0.55172 -2.875,-0.1184 -1.1966,0.47884 -0.84118,0.83428 0.90624,0.90626 1.58124,0.0652 2.4672,-0.2894 1.96876,-0.78784 z m 165.59758,-4.71874 c 1.8658,-2.37908 1.81276,-2.43214 -0.56634,-0.56634 -2.49862,1.95956 -3.29322,3.19134 -2.05866,3.19134 0.31148,0 1.49272,-1.18124 2.625,-2.625 z m -300.63275,-14.25 c -0.35752,-1.85626 -0.65006,-0.3375 -0.65006,3.375 0,3.7125 0.29254,5.23126 0.65006,3.375 0.35754,-1.85626 0.35754,-4.89374 0,-6.75 z m 317.13275,0.75 c 1.8658,-2.37908 1.81276,-2.43214 -0.56634,-0.56634 -1.44374,1.13228 -2.625,2.31352 -2.625,2.625 0,1.23456 1.23178,0.43996 3.19134,-2.05866 z M 230.12582,220.56022 c 0,-0.825 1.0125,-2.3403 2.25,-3.36734 1.2375,-1.02704 2.25,-1.36454 2.25,-0.75 0,0.61454 1.0125,0.27704 2.25,-0.75 1.25512,-1.04164 2.25,-1.20408 2.25,-0.36734 0,0.825 -1.0125,2.3403 -2.25,3.36734 -1.2375,1.02704 -2.25,1.36454 -2.25,0.75 0,-0.61454 -1.0125,-0.27704 -2.25,0.75 -1.2551,1.04164 -2.25,1.20408 -2.25,0.36734 z"
     id="path19736" />
</svg>
